<svg xmlns="http://www.w3.org/2000/svg" width="63.614" height="41.385" viewBox="0 0 63.614 41.385">
  <g id="CRM_Services" data-name="CRM Services" transform="translate(-440.345 -979.072)">
    <g id="Path_1385" data-name="Path 1385" transform="translate(0)" fill="none">
      <path d="M493.612,999.764a20.681,20.681,0,0,0-40.726-5.1,12.892,12.892,0,0,0,.093,25.777v.014h40.633a10.346,10.346,0,1,0,0-20.693Z" stroke="none"/>
      <path d="M 472.9206848144531 983.072021484375 C 469.1367797851562 983.072021484375 465.5720520019531 984.3084716796875 462.6118774414062 986.6477661132812 C 459.7374572753906 988.9192504882812 457.660400390625 992.1163330078125 456.7632751464844 995.6500854492188 L 456.0194396972656 998.5798950195312 L 452.997802734375 998.6642456054688 C 450.6715087890625 998.7291259765625 448.4949951171875 999.682373046875 446.8692016601562 1001.348388671875 C 445.2414245605469 1003.016418457031 444.344970703125 1005.219543457031 444.344970703125 1007.552001953125 C 444.344970703125 1009.896057128906 445.2490234375 1012.107604980469 446.8906555175781 1013.779174804688 C 448.5307922363281 1015.44921875 450.7225646972656 1016.395568847656 453.0621948242188 1016.44384765625 L 453.6890869140625 1016.456787109375 L 493.6124572753906 1016.456787109375 C 497.1119384765625 1016.456787109375 499.958984375 1013.609802246094 499.958984375 1010.1103515625 C 499.958984375 1006.61083984375 497.1119384765625 1003.763793945312 493.6124572753906 1003.763793945312 L 489.6124572753906 1003.763793945312 L 489.6124572753906 999.7637939453125 C 489.6124572753906 995.3055419921875 487.8761291503906 991.1139526367188 484.7232971191406 987.9611206054688 C 481.5704956054688 984.808349609375 477.37890625 983.072021484375 472.9206848144531 983.072021484375 M 472.9206848144531 979.072021484375 C 484.3477478027344 979.072021484375 493.6124572753906 988.3366088867188 493.6124572753906 999.7637939453125 C 499.3265380859375 999.7637939453125 503.958984375 1004.396118164062 503.958984375 1010.1103515625 C 503.958984375 1015.824462890625 499.3265380859375 1020.456787109375 493.6124572753906 1020.456787109375 L 452.9796447753906 1020.456787109375 L 452.9796447753906 1020.442993164062 C 445.9782104492188 1020.298461914062 440.344970703125 1014.588256835938 440.344970703125 1007.552001953125 C 440.344970703125 1000.546752929688 445.9284362792969 994.85986328125 452.8862609863281 994.665771484375 C 455.16064453125 985.7072143554688 463.2551574707031 979.072021484375 472.9206848144531 979.072021484375 Z" stroke="none" fill="#272727"/>
    </g>
    <g id="Group_1373" data-name="Group 1373" transform="translate(462.395 989.041)">
      <circle id="Ellipse_309" data-name="Ellipse 309" cx="5.718" cy="5.718" r="5.718" transform="translate(5.017 5.017)" fill="none" stroke="#272727" stroke-width="4"/>
      <line id="Line_161" data-name="Line 161" y2="5.017" transform="translate(10.735)" fill="none" stroke="#272727" stroke-width="4"/>
      <line id="Line_162" data-name="Line 162" x1="3.547" y2="3.547" transform="translate(14.779 3.144)" fill="none" stroke="#272727" stroke-width="4"/>
      <line id="Line_163" data-name="Line 163" x1="5.017" transform="translate(16.454 10.735)" fill="none" stroke="#272727" stroke-width="4"/>
      <line id="Line_164" data-name="Line 164" x1="3.547" y1="3.547" transform="translate(14.779 14.779)" fill="none" stroke="#272727" stroke-width="4"/>
      <line id="Line_165" data-name="Line 165" y1="5.017" transform="translate(10.735 16.454)" fill="none" stroke="#272727" stroke-width="4"/>
      <line id="Line_166" data-name="Line 166" y1="3.547" x2="3.547" transform="translate(3.144 14.779)" fill="none" stroke="#272727" stroke-width="4"/>
      <line id="Line_167" data-name="Line 167" x2="5.017" transform="translate(0 10.735)" fill="none" stroke="#272727" stroke-width="4"/>
      <line id="Line_168" data-name="Line 168" x2="3.547" y2="3.547" transform="translate(3.144 3.144)" fill="none" stroke="#272727" stroke-width="4"/>
    </g>
  </g>
</svg>
