<svg id="Group_1467" data-name="Group 1467" xmlns="http://www.w3.org/2000/svg" width="110.379" height="51.266" viewBox="0 0 110.379 51.266">
  <path id="Path_1422" data-name="Path 1422" d="M-79.547,2026.427q.006,3.669.012,7.337,0,21.94,0,43.881l-11.367.029c-.254-.175-.138-.439-.138-.66q-.009-24.955-.016-49.911c0-.5.076-.7.651-.7C-86.788,2026.439-83.168,2026.426-79.547,2026.427Z" transform="translate(91.07 -2026.407)" fill="#0071bb"/>
  <path id="Path_1423" data-name="Path 1423" d="M164.287,2244.7a5.439,5.439,0,0,1-6.282,2.146,4.4,4.4,0,0,1-3.43-3.895,4.332,4.332,0,0,1,2.465-4.625,8.241,8.241,0,0,1,6.7-.3c.177.061.346.145.524.221a3.123,3.123,0,0,0-2.76-3.611,3.531,3.531,0,0,0-3.9,1.658c-.147.254-.3.247-.526.141a10.9,10.9,0,0,0-1.388-.591c-.645-.2-.6-.5-.282-.973a5.617,5.617,0,0,1,3.667-2.567,7.8,7.8,0,0,1,3.842.158,5.234,5.234,0,0,1,3.888,4.834c.111,2.97.041,5.946.06,8.919,0,.316-.115.441-.419.412-.024,0-.048,0-.072,0-.622-.012-1.38.191-1.829-.093C164.047,2246.221,164.523,2245.388,164.287,2244.7Zm-3.178-5.031a4.113,4.113,0,0,0-3.141,1.092,2.13,2.13,0,0,0,.691,3.59,4.286,4.286,0,0,0,5.705-3.361.634.634,0,0,0-.4-.676A5.91,5.91,0,0,0,161.109,2239.67Z" transform="translate(-119.184 -2202.524)" fill="#fff"/>
  <path id="Path_1424" data-name="Path 1424" d="M514.14,2240.075h-4.821c-.312,0-.6-.061-.576.46a4.476,4.476,0,0,0,6.614,3.537,2.7,2.7,0,0,0,1.184-1.223c.259-.656.606-.572,1.083-.315.273.147.571.248.858.369.785.33.785.33.335,1.091-2.425,4.1-8.768,4.127-11.478.045a8.343,8.343,0,0,1,.2-9.156,6.376,6.376,0,0,1,6.97-2.59c2.771.577,4.286,2.454,4.924,5.128a13.208,13.208,0,0,1,.222,1.927c.047.53-.086.762-.7.743C517.355,2240.043,515.747,2240.075,514.14,2240.075Zm-1.259-2.176c1.1,0,2.2-.041,3.3.014.719.036.724-.24.537-.788a3.79,3.79,0,0,0-3.963-2.582,4.045,4.045,0,0,0-3.763,2.923c-.114.409.051.438.371.437C510.537,2237.894,511.709,2237.9,512.882,2237.9Z" transform="translate(-420.112 -2202.495)" fill="#fff"/>
  <path id="Path_1425" data-name="Path 1425" d="M65.909,2191.49a6.009,6.009,0,0,1,5.1,5.8,6.077,6.077,0,0,1-5.084,6.137,19.75,19.75,0,0,1-3.155.119c-.79.014-1.581.011-2.371.015-.371.156-.237.487-.238.751-.013,2.438-.014,4.877-.018,7.316-.5,0-1.007-.027-1.507.007-.52.037-.647-.19-.646-.673q.017-9.332,0-18.663c0-.55.2-.689.712-.684,2.129.023,4.259.013,6.389.006C65.363,2191.625,65.665,2191.716,65.909,2191.49Zm-5.507,9.5c1.506,0,3.013.033,4.518,0a3.545,3.545,0,0,0,.048-7.082c-1.528-.042-3.058.005-4.587.013-.261.1-.228.332-.228.544q0,3,0,6C60.153,2200.679,60.132,2200.9,60.4,2200.991Z" transform="translate(-36.529 -2167.726)" fill="#fff"/>
  <path id="Path_1426" data-name="Path 1426" d="M409.631,2233.633a2.337,2.337,0,0,1,.78-.757c.2.03.337-.039.369-.256a5.076,5.076,0,0,1,8.068,3.893c-.223.245-.137.544-.137.823-.006,2.649-.016,5.3.006,7.949,0,.55-.141.795-.725.742-.474-.042-.954-.007-1.432-.006q-.009-4.061-.021-8.122c0-.3.078-.633-.205-.873-.029-.036-.071-.068-.084-.108-.85-2.751-2.933-3.561-5.385-2.092-.343-.03-.5.125-.477.47l-.172.215a2.4,2.4,0,0,0-1.012,2.008c-.233.24-.142.543-.144.821q-.019,3.84-.022,7.681c-.479,0-.961-.038-1.436.007-.6.055-.723-.208-.721-.75.019-4.359.015-8.719.017-13.078h2.015a7.478,7.478,0,0,0,.014.93c.043.322-.211.739.261.944l.006,0,.087.151.054-.174,0,0C409.608,2234.041,409.631,2233.846,409.631,2233.633Z" transform="translate(-335.201 -2202.106)" fill="#fff"/>
  <path id="Path_1427" data-name="Path 1427" d="M333.723,2220.049c.418,1.546,1.067,1.974,2.613,1.649.373-.079.516.007.632.337a11.908,11.908,0,0,0,.564,1.4c.2.4,0,.51-.323.586a5.854,5.854,0,0,1-3.94-.263,3.559,3.559,0,0,1-2.1-3.279c-.105-2.632-.081-5.269-.008-7.9.016-.017.048-.042.045-.048a.722.722,0,0,0-.071-.092c-.667-.012-1.334-.039-2-.03-.341,0-.489-.119-.449-.459a1.082,1.082,0,0,0,0-.143c-.036-1.817-.036-1.84,1.776-1.823.548.005.692-.158.671-.687-.041-1.024-.02-2.05-.006-3.075,0-.217-.147-.591.338-.51.388.507.927.188,1.389.223s.641.151.627.625c-.026.93-.012,1.862,0,2.793,0,.247-.085.552.3.628.959,0,1.918,0,2.876-.017.335-.007.442.1.464.448.127,1.992.136,1.99-1.871,1.992-.5,0-1.006.013-1.509.021-.317.1-.257.362-.257.592q0,3.219,0,6.438C333.481,2219.676,333.4,2219.95,333.723,2220.049Z" transform="translate(-268.258 -2179.889)" fill="#fff"/>
  <path id="Path_1428" data-name="Path 1428" d="M63.086,2076.411c.743,0,1.489.039,2.229-.013.552-.038.688.176.712.686a5.564,5.564,0,0,1-3.529,5.838,6.4,6.4,0,0,1-7.2-2A6.272,6.272,0,0,1,63.97,2072c.438.344.539.6.049.95a1.779,1.779,0,0,0-.4.406c-.222.31-.394.273-.691.051a4.237,4.237,0,0,0-4.918-.33,4.473,4.473,0,0,0-2.164,4.594,4.308,4.308,0,0,0,3.165,3.718,4.016,4.016,0,0,0,5.123-2.48c.142-.508.142-.792-.541-.748-.931.061-1.87-.015-2.8.028-.493.022-.6-.15-.6-.61.01-1.17-.011-1.17,1.174-1.17Z" transform="translate(-33.055 -2064.351)" fill="#007bc3"/>
  <path id="Path_1429" data-name="Path 1429" d="M276.782,2109.327c-2.024,1.166-3.779.917-5.054-.7a4.138,4.138,0,0,1,.216-5.4,3.487,3.487,0,0,1,4.787-.459c.18-.963.927-.436,1.419-.5.547-.077.331.419.333.67q.026,3.273,0,6.546a6.662,6.662,0,0,1-.118,1.285,3.4,3.4,0,0,1-3.028,2.925,3.862,3.862,0,0,1-3.97-1.884c-.2-.344-.228-.55.215-.668a3.125,3.125,0,0,0,.661-.28c.275-.148.431-.128.635.164a2.092,2.092,0,0,0,3.923-1.265C276.806,2109.619,276.79,2109.48,276.782,2109.327Zm.145-3.244a2.251,2.251,0,0,0-2.081-2.467,2.441,2.441,0,0,0-.057,4.863A2.2,2.2,0,0,0,276.927,2106.083Z" transform="translate(-218.732 -2091.146)" fill="#007bc3"/>
  <path id="Path_1430" data-name="Path 1430" d="M618.809,2235.688a4.792,4.792,0,0,1,5.271-2.545c.839.138.846.175.54.934-.018.044-.037.088-.055.133a4.635,4.635,0,0,1-.621,1.438c-.375.4-.971-.008-1.477.012a3.776,3.776,0,0,0-3.523,3.911q-.041,3.558,0,7.116c.006.548-.115.8-.706.721-.61-.077-1.41.256-1.794-.138s-.115-1.185-.116-1.8c-.011-3.785.009-7.571-.02-11.356,0-.615.178-.752.763-.74,1.733.033,1.734.008,1.733,1.764Z" transform="translate(-514.426 -2203.309)" fill="#fff"/>
  <path id="Path_1431" data-name="Path 1431" d="M267.77,2236.075a4,4,0,0,0-3.374,3.5c-.375.159-.223.494-.224.753-.012,2.485-.008,4.97-.008,7.456l-2.154,0q0-6.978,0-13.955c.6-.01,1.2,0,1.795-.035.373-.019.514.112.5.492a11.071,11.071,0,0,0,.05,1.629,4.517,4.517,0,0,1,3.712-2.376,1.019,1.019,0,0,0,.183.107c.392.133.961-.223,1.178.236a3.424,3.424,0,0,1,.071,1.272c0,.024,0,.049,0,.072.059.48-.175.6-.626.619C268.5,2235.854,268.041,2235.588,267.77,2236.075Z" transform="translate(-211.181 -2203.717)" fill="#fff"/>
  <path id="Path_1432" data-name="Path 1432" d="M153.1,2105.84a4.016,4.016,0,1,1-3.975-4.062A3.995,3.995,0,0,1,153.1,2105.84Zm-1.784.011a2.3,2.3,0,0,0-2.2-2.451,2.438,2.438,0,0,0-.038,4.864A2.294,2.294,0,0,0,151.319,2105.851Z" transform="translate(-111.08 -2090.928)" fill="#e93129"/>
  <path id="Path_1433" data-name="Path 1433" d="M360.134,2109.916a3.785,3.785,0,0,1-3.51-2.211,4.107,4.107,0,0,1,.44-4.472,3.444,3.444,0,0,1,3.628-1.346,3.791,3.791,0,0,1,2.779,2.646c.168.418-.16.431-.376.523-1.454.616-2.9,1.242-4.372,1.821-.487.192-.434.374-.157.7a2.207,2.207,0,0,0,3.251,0c.132-.129.2-.469.485-.283a4.148,4.148,0,0,1,1.133.85c.03.04-.122.235-.21.34A3.949,3.949,0,0,1,360.134,2109.916Zm-2.1-4.242c1.029-.43,2.027-.868,3.043-1.262.473-.183.4-.36.092-.627a1.771,1.771,0,0,0-1.952-.192A2.013,2.013,0,0,0,358.035,2105.674Z" transform="translate(-291.783 -2090.948)" fill="#e22c27"/>
  <path id="Path_1434" data-name="Path 1434" d="M216.142,2105.812a4.014,4.014,0,1,1-4.012-4.022A4,4,0,0,1,216.142,2105.812Zm-1.777.059a2.253,2.253,0,1,0-2.233,2.4A2.3,2.3,0,0,0,214.365,2105.871Z" transform="translate(-165.047 -2090.938)" fill="#ffa900"/>
  <path id="Path_1435" data-name="Path 1435" d="M335.725,2079.55c0-1.75.03-3.5-.016-5.249-.016-.6.188-.765.729-.691a1.861,1.861,0,0,0,.5,0c.458-.064.555.145.553.571q-.023,5.392,0,10.785c0,.466-.156.553-.579.552-1.192,0-1.192.016-1.192-1.151Z" transform="translate(-274.274 -2066.801)" fill="#45a436"/>
  <path id="Path_1436" data-name="Path 1436" d="M64.522,2190.533c-.244.227-.546.135-.823.136-2.13.007-4.26.017-6.389-.005-.516-.006-.713.134-.712.683q.024,9.331,0,18.663c0,.483.126.71.646.673.5-.035,1-.007,1.507-.007l.206.01c-.778.413-1.606.1-2.409.16-.131.009-.167-.147-.17-.272q0-.216,0-.431,0-9.519-.011-19.038c0-.542.1-.744.7-.731,2.035.041,4.071.011,6.107.019A3.577,3.577,0,0,1,64.522,2190.533Z" transform="translate(-35.142 -2166.769)" fill="#fff"/>
  <path id="Path_1437" data-name="Path 1437" d="M405.383,2235.457c0,4.359,0,8.719-.017,13.077,0,.543.125.807.721.751.475-.044.957-.007,1.437-.006l.207-.018c.052.3-.178.222-.32.224-.6.008-1.2-.013-1.8.009-.37.013-.5-.113-.5-.492.01-4.358.005-8.715.01-13.073C405.124,2235.742,405.023,2235.463,405.383,2235.457Z" transform="translate(-333.686 -2205.365)" fill="#fff"/>
  <path id="Path_1438" data-name="Path 1438" d="M260.572,2235.551q0,6.978,0,13.955c-.352-.046-.219-.325-.219-.506q-.011-6.471,0-12.942C260.358,2235.879,260.219,2235.6,260.572,2235.551Z" transform="translate(-209.747 -2205.445)" fill="#fff"/>
  <path id="Path_1439" data-name="Path 1439" d="M472.853,2274.938c.477,0,.958-.036,1.432.006.584.052.73-.192.725-.743-.023-2.649-.013-5.3-.006-7.949,0-.278-.086-.578.137-.823a7.845,7.845,0,0,1,.108.919c.009,2.723-.007,5.448.018,8.171,0,.512-.157.67-.651.635-.547-.038-1.1,0-1.648-.012-.143,0-.372.075-.319-.223Z" transform="translate(-391.494 -2231.023)" fill="#fff"/>
  <path id="Path_1440" data-name="Path 1440" d="M276.872,2283.7c0-2.485,0-4.97.008-7.455,0-.259-.151-.594.224-.753,0,2.493.006,4.985-.014,7.478C277.088,2283.207,277.277,2283.556,276.872,2283.7Z" transform="translate(-223.888 -2239.633)" fill="#fff"/>
  <path id="Path_1441" data-name="Path 1441" d="M73.134,2283.46l-.206-.01c0-2.439,0-4.877.017-7.316,0-.264-.133-.595.238-.751Q73.158,2279.423,73.134,2283.46Z" transform="translate(-49.316 -2239.544)" fill="#fff"/>
  <path id="Path_1442" data-name="Path 1442" d="M362.214,2260.032c-.325-.1-.242-.373-.243-.6q-.007-3.219,0-6.438c0-.23-.06-.5.257-.592Q362.221,2256.218,362.214,2260.032Z" transform="translate(-296.749 -2219.873)" fill="#fff"/>
  <path id="Path_1443" data-name="Path 1443" d="M302.049,2235.385c.271-.489.731-.221,1.1-.237.451-.019.685-.14.626-.62,0-.024,0-.048,0-.072a3.428,3.428,0,0,0-.071-1.272c-.217-.458-.786-.1-1.178-.235a1.082,1.082,0,0,1-.183-.108c1.636-.241,1.636-.241,1.636,1.361,0,1.114,0,1.112-1.136,1.144C302.574,2235.354,302.312,2235.371,302.049,2235.385Z" transform="translate(-245.46 -2203.025)" fill="#fff"/>
  <path id="Path_1444" data-name="Path 1444" d="M350.357,2209.842c-.381-.075-.294-.381-.3-.628-.007-.931-.022-1.862,0-2.792.013-.475-.176-.593-.627-.626s-1,.285-1.389-.222c.571-.009,1.143,0,1.712-.032.459-.029.552.178.551.591C350.307,2207.369,350.339,2208.605,350.357,2209.842Z" transform="translate(-284.838 -2179.753)" fill="#fff"/>
  <path id="Path_1445" data-name="Path 1445" d="M422.075,2280.9l-.207.018q.009-3.841.022-7.681c0-.278-.089-.58.143-.821.042,0,.084,0,.126,0C422,2275.24,422.151,2278.07,422.075,2280.9Z" transform="translate(-348.031 -2237)" fill="#fff"/>
  <path id="Path_1446" data-name="Path 1446" d="M472.774,2277.991l-.206-.018q-.011-4.488-.021-8.976c.284.239.2.569.206.872Q472.768,2273.93,472.774,2277.991Z" transform="translate(-391.415 -2234.077)" fill="#fff"/>
  <path id="Path_1447" data-name="Path 1447" d="M423.143,2260.477c-.042,0-.084,0-.126,0a2.4,2.4,0,0,1,1.013-2.008A7.984,7.984,0,0,0,423.143,2260.477Z" transform="translate(-349.015 -2225.062)" fill="#fff"/>
  <path id="Path_1448" data-name="Path 1448" d="M421.18,2237.253c-.472-.2-.219-.622-.261-.944a7.5,7.5,0,0,1-.014-.93c.319-.078.276.153.277.333C421.184,2236.226,421.181,2236.739,421.18,2237.253Z" transform="translate(-347.192 -2205.284)" fill="#fff"/>
  <path id="Path_1449" data-name="Path 1449" d="M431.226,2254.155c-.027-.345.133-.5.477-.47Z" transform="translate(-356.039 -2220.964)" fill="#fff"/>
  <path id="Path_1450" data-name="Path 1450" d="M424.214,2245.422c0,.212-.023.407-.3.428A.763.763,0,0,1,424.214,2245.422Z" transform="translate(-349.784 -2213.895)" fill="#fff"/>
  <path id="Path_1451" data-name="Path 1451" d="M431.772,2238.385c-.032.217-.167.285-.369.256A.6.6,0,0,1,431.772,2238.385Z" transform="translate(-356.193 -2207.871)" fill="#fff"/>
  <path id="Path_1452" data-name="Path 1452" d="M423.1,2248.364l-.054.173-.087-.151A.765.765,0,0,0,423.1,2248.364Z" transform="translate(-348.964 -2216.414)" fill="#fff"/>
  <path id="Path_1453" data-name="Path 1453" d="M345.751,2252.505a.711.711,0,0,1,.071.092c0,.006-.029.031-.045.047A.3.3,0,0,1,345.751,2252.505Z" transform="translate(-282.871 -2219.958)" fill="#fff"/>
  <path id="Path_1454" data-name="Path 1454" d="M73.266,2208.4q.011,3.534.022,7.068c-.27-.087-.25-.312-.25-.527q0-3,0-6C73.038,2208.727,73,2208.5,73.266,2208.4Z" transform="translate(-49.413 -2182.198)" fill="#fff"/>
</svg>
