<svg id="Group_3016" data-name="Group 3016" xmlns="http://www.w3.org/2000/svg" xmlns:xlink="http://www.w3.org/1999/xlink" width="223.913" height="99.335" viewBox="0 0 223.913 99.335">
  <defs>
    <clipPath id="clip-path">
      <rect id="Rectangle_53" data-name="Rectangle 53" width="223.412" height="99.335" fill="#fff" stroke="rgba(0,0,0,0)" stroke-width="1"/>
    </clipPath>
  </defs>
  <g id="Group_74" data-name="Group 74" transform="translate(0 0)">
    <g id="Group_73" data-name="Group 73" clip-path="url(#clip-path)">
      <path id="Path_160" data-name="Path 160" d="M357.053,951.159c.052,3.9,2.632,6.468,6.34,6.506,3.7-.034,6.284-2.6,6.336-6.506-.052-3.9-2.632-6.468-6.336-6.506-3.708.038-6.288,2.608-6.34,6.506m6.34,9.222a9.53,9.53,0,1,1,.021,0Z" transform="translate(-256.166 -870.258)" fill="#fff" stroke="rgba(0,0,0,0)" stroke-width="1"/>
      <path id="Path_161" data-name="Path 161" d="M369.6,951.154a6.524,6.524,0,0,1,1.778-4.844,5.276,5.276,0,0,1,3.77-1.531c7.833.021,7.833,12.725,0,12.749a5.308,5.308,0,0,1-3.77-1.531,6.061,6.061,0,0,1-1.778-4.843m14.468-.16c0-4.541-2.979-9.048-8.735-9.037h-.017a7.08,7.08,0,0,0-5.649,2.892l0-2.444h-2.882v26.463h2.882l0-11.409a7.085,7.085,0,0,0,5.649,2.892h.017c5.892.01,8.735-4.677,8.735-9.357" transform="translate(-225.056 -870.218)" fill="#fff" stroke="rgba(0,0,0,0)" stroke-width="1"/>
      <path id="Path_162" data-name="Path 162" d="M373.379,948.169c0,4.5-.42,6.4-1.656,7.7a5.178,5.178,0,0,1-3.732,1.531,4.514,4.514,0,0,1-3.225-1.055c-.663-.7-1.087-1.413-1.122-3.826v-10.43h-2.917v10.041a13.769,13.769,0,0,0,.208,2.656c.594,3.024,2.6,5.184,6.732,5.243a6.871,6.871,0,0,0,5.805-2.9v2.455H376.3V942.086h-2.917Z" transform="translate(-240.012 -869.899)" fill="#fff" stroke="rgba(0,0,0,0)" stroke-width="1"/>
      <path id="Path_163" data-name="Path 163" d="M361.991,942.265a9.455,9.455,0,0,0-2.337-.306,6.866,6.866,0,0,0-5.805,2.9V942.4h-2.916v17.5h2.916v-6.083a23.621,23.621,0,0,1,.4-5.09,4.88,4.88,0,0,1,6.617-3.711Z" transform="translate(-264.222 -870.213)" fill="#fff" stroke="rgba(0,0,0,0)" stroke-width="1"/>
      <path id="Path_164" data-name="Path 164" d="M353.477,952.46a4.509,4.509,0,0,1-3.1-1.132,3.869,3.869,0,0,1-1.2-2.93c.031-2.434,1.68-3.989,4.305-4.066,2.628.076,4.284,1.632,4.316,4.062a3.878,3.878,0,0,1-1.2,2.93,4.5,4.5,0,0,1-3.107,1.135m-.215,14.822h-.035c-2.7,0-4.149-.687-4.885-1.264a2.819,2.819,0,0,1-1.187-2.305,4.049,4.049,0,0,1,3.965-3.809,28.852,28.852,0,0,1,6.649.854,4.024,4.024,0,0,1,1.76,1,2.042,2.042,0,0,1,.517,1.493,3.228,3.228,0,0,1-1.413,2.635,9.051,9.051,0,0,1-5.371,1.4m9.485-24.692h-5.979a7.677,7.677,0,0,0-3.291-.715,7.285,7.285,0,0,0-4.854,1.74,6.513,6.513,0,0,0-.681,8.85c-1.285.941-2.045,1.9-2.052,3.281a2.957,2.957,0,0,0,2.215,3.024,5.278,5.278,0,0,0-3.6,4.937c-.031,3.184,2.569,6.048,8.735,6.055a11.8,11.8,0,0,0,6.927-1.826,5.7,5.7,0,0,0,2.521-4.666A4.586,4.586,0,0,0,361.435,960a8.223,8.223,0,0,0-4.583-2.052,48.781,48.781,0,0,0-5.617-.528c-1.951-.1-2.51-.666-2.521-1.514a2.2,2.2,0,0,1,1.062-1.924,7.577,7.577,0,0,0,3.7.934,7.273,7.273,0,0,0,4.857-1.743,6.262,6.262,0,0,0,2.1-4.781,5.738,5.738,0,0,0-.951-3.281l3.267.188Z" transform="translate(-280.102 -870.423)" fill="#fff" stroke="rgba(0,0,0,0)" stroke-width="1"/>
    </g>
  </g>
  <path id="Path_165" data-name="Path 165" d="M380.505,921.639v6.274h13.516v40.681h6.565V927.913h13.947v-6.274Z" transform="translate(-191.121 -920.443)" fill="#fff" stroke="rgba(0,0,0,0)" stroke-width="1"/>
  <g id="Group_76" data-name="Group 76" transform="translate(0 0)">
    <g id="Group_75" data-name="Group 75" clip-path="url(#clip-path)">
      <path id="Path_166" data-name="Path 166" d="M376.243,950.338V927.917H379.5a22.953,22.953,0,0,1,7.218.919,9.122,9.122,0,0,1,3.753,2.254,11.106,11.106,0,0,1,2.913,8.017c-.021,3.92-1.212,6.524-3.177,8.308s-5.055,2.917-9.5,2.923ZM401.526,968.6l-10.013-14.4a16.125,16.125,0,0,0,3.187-2.212,16.827,16.827,0,0,0,5.385-12.881,17.1,17.1,0,0,0-4.645-12.36A16.287,16.287,0,0,0,389,922.858a30.94,30.94,0,0,0-9.506-1.219l-7.59,0a2.19,2.19,0,0,0-1.75.545,2.151,2.151,0,0,0-.479,1.625V968.6h6.565V956.615H380.7a27.916,27.916,0,0,0,4.378-.333l8.565,12.315Z" transform="translate(-217.885 -920.443)" fill="#fff" stroke="rgba(0,0,0,0)" stroke-width="1"/>
      <path id="Path_167" data-name="Path 167" d="M367.069,955.6,375,935.515l8,20.082Zm8.163-34.3c-.833,0-1.4.5-1.8,1.469-1.7,4.1-18.672,46.684-18.672,46.684h6.819l3.014-7.576h20.974l3.062,7.576h7.3s-17.2-42.583-18.919-46.684c-.417-.989-.972-1.469-1.774-1.469" transform="translate(-254.769 -921.296)" fill="#fff" stroke="rgba(0,0,0,0)" stroke-width="1"/>
      <path id="Path_168" data-name="Path 168" d="M361.115,947.81S344.29,924.9,342.193,922.239a1.969,1.969,0,0,0-2.163-.868c-.8.219-1.212.92-1.212,1.972l0,46.1h6.565v-32s10.492,14.026,14.1,18.787a1.865,1.865,0,0,0,1.552.871,1.8,1.8,0,0,0,1.531-.861c7.565-10.245,14.287-19.373,14.287-19.373V969.44h6.565v-46.1c0-1.052-.41-1.753-1.215-1.972a1.971,1.971,0,0,0-2.163.868c-2.094,2.663-18.922,25.571-18.922,25.571" transform="translate(-294.177 -921.286)" fill="#fff" stroke="rgba(0,0,0,0)" stroke-width="1"/>
      <path id="Path_169" data-name="Path 169" d="M325.958,958.55l6.34-1.969a10.879,10.879,0,0,0,10.635,7.354c4.909.007,8.635-2.659,8.635-6.992-.035-3.694-1.84-5.517-5.468-7.486-3.4-1.85-8.058-3.222-11.881-6.277a12.1,12.1,0,0,1-4.722-9.808c0-6.979,5.75-12,13.062-12a15.421,15.421,0,0,1,13.867,8.7l-6.017,2.736a8.68,8.68,0,0,0-7.85-5.065c-3.854-.007-6.392,2.448-6.392,5.659,0,3.111,1.524,4.829,5.586,6.923,3.392,1.746,7.975,3.167,11.725,6.3a13.015,13.015,0,0,1,4.753,10.308c0,8.458-7.4,13.346-15.318,13.339-7.94,0-14.53-4.611-16.953-11.731" transform="translate(-325.958 -921.093)" fill="#fff" stroke="rgba(0,0,0,0)" stroke-width="1"/>
    </g>
  </g>
</svg>
