<svg xmlns="http://www.w3.org/2000/svg" width="31.232" height="31.232" viewBox="0 0 31.232 31.232">
  <g id="Group_2743" data-name="Group 2743" transform="translate(0.501 0.498)">
    <path id="Exclusion_1" data-name="Exclusion 1" d="M17978.021,16558.467a15.121,15.121,0,1,1,10.686-4.43A15.018,15.018,0,0,1,17978.021,16558.467Zm-4.932-18v3.475h1.947v9.881h4.086v-9.881h2.7l.357-3.467h-3.053v-2.047a.834.834,0,0,1,.867-.943h2.2v-3.373l-3.025-.014a3.872,3.872,0,0,0-3.322,1.459,4.594,4.594,0,0,0-.8,2.664v2.248h-1.947Z" transform="translate(-17962.902 -16528.232)" fill="#f64984" stroke="rgba(0,0,0,0)" stroke-miterlimit="10" stroke-width="1"/>
  </g>
</svg>
