<svg id="Group_79" data-name="Group 79" xmlns="http://www.w3.org/2000/svg" xmlns:xlink="http://www.w3.org/1999/xlink" width="123.643" height="31.559" viewBox="0 0 123.643 31.559">
  <defs>
    <clipPath id="clip-path">
      <rect id="Rectangle_55" data-name="Rectangle 55" width="123.643" height="31.559" fill="#fff" stroke="rgba(0,0,0,0)" stroke-width="1"/>
    </clipPath>
  </defs>
  <g id="Group_78" data-name="Group 78" clip-path="url(#clip-path)">
    <path id="Path_170" data-name="Path 170" d="M481.222,1032.565h-.729a.431.431,0,0,0-.44.439v1.067a.427.427,0,0,0,.44.439h.729c.687,0,1.032-.087,1.032-.971s-.344-.974-1.032-.974" transform="translate(-412.291 -1017.172)" fill="#fff" stroke="rgba(0,0,0,0)" stroke-width="1"/>
    <path id="Path_171" data-name="Path 171" d="M489.19,1032.565h-.777a.382.382,0,0,0-.423.432v4.227a.393.393,0,0,0,.423.434h.777c.686,0,1.027-.121,1.027-.976v-3.144c0-.885-.341-.974-1.027-.974" transform="translate(-408.498 -1017.172)" fill="#fff" stroke="rgba(0,0,0,0)" stroke-width="1"/>
    <path id="Path_172" data-name="Path 172" d="M544.007,1037.111a.386.386,0,0,1-.427.432h-2a.387.387,0,0,0-.435.432v6.683a.382.382,0,0,1-.427.427h-1.6a.385.385,0,0,1-.424-.427v-6.683a.383.383,0,0,0-.435-.432h-2a.394.394,0,0,1-.432-.432v-1.6a.387.387,0,0,1,.432-.427h7.319a.38.38,0,0,1,.427.427Zm-12.413,5.777c.785,0,.993-.374,1.082-1.032a.449.449,0,0,1,.554-.415l1.618.361a.39.39,0,0,1,.318.418c-.064,1.082-.532,3.126-3.572,3.126-3.39,0-3.591-2.527-3.591-3.473V1038.3c0-.944.2-3.475,3.591-3.475,3.04,0,3.509,2.046,3.572,3.147a.381.381,0,0,1-.318.4l-1.589.358a.485.485,0,0,1-.573-.446.956.956,0,0,0-1.092-1c-1.06,0-1.129.674-1.129,1.777v2.056c0,1.1.069,1.772,1.129,1.772m-4.792-1.015c0,.946-.205,3.473-3.589,3.473s-3.586-2.527-3.586-3.473v-6.361a.381.381,0,0,1,.427-.427h1.6a.378.378,0,0,1,.43.427v5.6c0,1.1.078,1.772,1.131,1.772s1.132-.668,1.132-1.772v-5.6a.383.383,0,0,1,.43-.427h1.593a.381.381,0,0,1,.433.427Zm-8.376-.229c0,2.34-.89,3.441-3.578,3.441h-3.182a.386.386,0,0,1-.427-.427v-9.135a.388.388,0,0,1,.427-.437h3.182c2.688,0,3.578,1.091,3.578,3.432Zm-11.881,3.441h-1.633a.359.359,0,0,1-.334-.195l-1.484-2.869a.129.129,0,0,0-.108-.074h-.579a.424.424,0,0,0-.44.439v2.26a.426.426,0,0,1-.442.439h-1.6a.426.426,0,0,1-.445-.439v-9.123a.427.427,0,0,1,.445-.437h3.13c2.541,0,3.568,1.091,3.568,3.432a3.2,3.2,0,0,1-1.085,2.8.149.149,0,0,0-.041.185l1.51,2.814a.5.5,0,0,1-.463.766m-8.355-3.212c0,.946-.2,3.473-3.59,3.473s-3.581-2.527-3.581-3.473V1038.3c0-.944.2-3.475,3.581-3.475s3.59,2.53,3.59,3.475Zm-7.746-4.762a.383.383,0,0,1-.424.432h-2.009a.384.384,0,0,0-.424.432v6.683a.383.383,0,0,1-.433.427h-1.6a.387.387,0,0,1-.424-.427v-6.683a.377.377,0,0,0-.427-.432h-2a.39.39,0,0,1-.429-.432v-1.6a.384.384,0,0,1,.429-.427h7.319a.377.377,0,0,1,.424.427Zm-8.674,7.49c0,.315-.146.483-.433.483h-1.6a.377.377,0,0,1-.424-.427v-1.239a.381.381,0,0,0-.43-.429h-1.227a.386.386,0,0,0-.432.429v1.239a.375.375,0,0,1-.427.427h-1.607c-.272,0-.429-.168-.429-.483v-6.055c0-1.8.284-3.719,3.5-3.719s3.506,1.915,3.506,3.719Zm-8.2-2.728c0,.946-.2,3.473-3.587,3.473s-3.586-2.527-3.586-3.473V1038.3c0-.944.2-3.475,3.586-3.475,3,0,3.5,1.972,3.574,3.086a.415.415,0,0,1-.372.471l-1.614.356c-.29.059-.443-.072-.47-.368-.059-.69-.307-1.089-1.117-1.089-1.061,0-1.126.674-1.126,1.777v2.056c0,1.1.065,1.772,1.126,1.772s1.126-.668,1.126-1.373h-.825a.39.39,0,0,1-.43-.424v-1.148a.386.386,0,0,1,.43-.427h2.858a.379.379,0,0,1,.427.427Zm-25.746,6.519a8.223,8.223,0,1,1,8.229-8.225,8.224,8.224,0,0,1-8.229,8.225m98.408-21.7-4.543-4.542-4.537,4.542-4.549-4.542-4.539,4.542-4.543-4.542-4.543,4.542-4.537-4.542-4.539,4.542-4.545-4.542-4.54,4.542-4.545-4.542-4.539,4.542-4.545-4.542-4.54,4.542-4.546-4.542-4.537,4.542-4.545-4.542-4.539,4.542-4.545-4.542-4.537,4.542-4.543-4.542-4.548,4.542v-.067a13.627,13.627,0,0,0,0,27.084l99.924-.069a13.623,13.623,0,0,0,0-26.948" transform="translate(-434.205 -1022.149)" fill="#fff" stroke="rgba(0,0,0,0)" stroke-width="1"/>
    <path id="Path_173" data-name="Path 173" d="M475.433,1032.391c-1.057,0-1.126.674-1.126,1.776v2.056c0,1.1.069,1.772,1.126,1.772s1.131-.67,1.131-1.772v-2.056c0-1.1-.065-1.776-1.131-1.776" transform="translate(-415.038 -1017.255)" fill="#fff" stroke="rgba(0,0,0,0)" stroke-width="1"/>
    <path id="Path_174" data-name="Path 174" d="M464.353,1032.544c-.941,0-1.04.347-1.04,1.035v1.556a.391.391,0,0,0,.432.429h1.227a.4.4,0,0,0,.43-.439v-1.546c0-.687-.1-1.035-1.048-1.035" transform="translate(-420.292 -1017.182)" fill="#fff" stroke="rgba(0,0,0,0)" stroke-width="1"/>
  </g>
</svg>
