<svg xmlns="http://www.w3.org/2000/svg" width="186.112" height="213.487" viewBox="0 0 186.112 213.487">
  <g id="Group_3015" data-name="Group 3015" transform="translate(1331.077 226.011)">
    <path id="Path_3134" data-name="Path 3134" d="M-1094.7,783.759c0-2.832-.005-5.341,0-7.85,0-.512-.146-1.179.5-1.367a3.177,3.177,0,0,1,2.13.059c.35.147.368.528.368.862,0,4.228.016,8.456-.008,12.684a1.112,1.112,0,0,1-1.852.847,4.483,4.483,0,0,1-.9-.906c-2.24-2.685-4.471-5.378-6.719-8.086-.334.285-.173.635-.175.931-.016,2.279,0,4.559-.012,6.838,0,1.224-.167,1.349-1.611,1.341-1.246-.007-1.378-.128-1.379-1.355q-.005-6,0-11.991c0-.518-.115-1.106.549-1.343a1.459,1.459,0,0,1,1.7.466c.9,1.052,1.788,2.121,2.676,3.186C-1097.912,779.89-1096.4,781.708-1094.7,783.759Z" transform="translate(-181.734 -801.852)" fill="#fff"/>
    <path id="Path_3135" data-name="Path 3135" d="M-1206.022,779.307c0-1.289-.013-2.578,0-3.866.013-1.013.236-1.146,1.6-1.157.807-.006,1.424.072,1.4,1.148-.045,2.445-.056,4.892,0,7.336a3.5,3.5,0,0,0,4.62,3.548,3.391,3.391,0,0,0,2.461-3.441c.034-2.412.009-4.825.015-7.238,0-1.2.181-1.351,1.5-1.349,1.291,0,1.466.161,1.468,1.391,0,2.313.023,4.627-.006,6.94a6.517,6.517,0,0,1-9.844,5.8,6.023,6.023,0,0,1-3.213-5.442c-.056-1.22-.01-2.445-.01-3.668Z" transform="translate(-100.231 -801.822)" fill="#fff"/>
    <path id="Path_3136" data-name="Path 3136" d="M-944,781.3c1.82.85,2.788,2.125,2.655,4.035-.135,1.94-1.632,3.363-3.925,3.692a46.674,46.674,0,0,1-6.141.126c-.522.005-.772-.282-.771-.813q.007-6.645,0-13.289c0-.615.361-.8.9-.794,1.784.033,3.572-.107,5.35.1,1.686.192,3.113.831,3.6,2.614A3.6,3.6,0,0,1-944,781.3Zm-6.349,3.568c0,.694.005,1.388,0,2.082,0,.32,0,.6.444.591a27.634,27.634,0,0,0,4.55-.141,2.4,2.4,0,0,0,2.137-2.834,2.554,2.554,0,0,0-2.491-2.268c-1.347-.1-2.707-.036-4.061-.075-.514-.015-.6.23-.583.663C-950.334,783.549-950.353,784.21-950.353,784.871Zm0-6.621c0,.66,0,1.32,0,1.98,0,.287.026.538.4.526a23.887,23.887,0,0,0,4.048-.116,2.207,2.207,0,0,0,1.865-2.429,2.173,2.173,0,0,0-2.048-2.26,13.081,13.081,0,0,0-1.874-.1C-950.353,775.836-950.354,775.843-950.352,778.25Z" transform="translate(-303.713 -801.79)" fill="#fff"/>
    <path id="Path_3137" data-name="Path 3137" d="M-770.281,781.729c0-2.145.017-4.291-.01-6.435-.009-.7.23-1.053.963-1.034,2.011.052,4.027-.11,6.035.107a6.954,6.954,0,0,1,6.37,7.289c.015,4.058-2.485,7-6.345,7.416-2.039.221-4.089.06-6.134.1-.7.014-.892-.365-.886-1.006C-770.268,786.02-770.281,783.874-770.281,781.729Zm1.831-.074c0,1.719.011,3.438-.007,5.156,0,.464.048.739.627.719,1.288-.045,2.58.029,3.866-.044a5.389,5.389,0,0,0,5.192-5.752c.005-3.268-2.038-5.585-5.163-5.778-1.285-.079-2.578-.008-3.865-.049-.537-.017-.667.186-.66.69C-768.434,778.284-768.45,779.97-768.45,781.655Z" transform="translate(-449.518 -801.795)" fill="#fff"/>
    <path id="Path_3138" data-name="Path 3138" d="M-670.09,783.385c0-2.015.029-4.029-.014-6.043-.018-.841.251-1.218,1.129-1.184,1.912.073,3.831-.106,5.74.119a6.811,6.811,0,0,1,6.194,7.206,6.819,6.819,0,0,1-6.291,7.127c-1.942.2-3.894.05-5.84.09-.674.014-.932-.309-.925-.975C-670.076,787.611-670.089,785.5-670.09,783.385Zm1.8.019c0,1.65.007,3.3,0,4.952,0,.435-.006.772.6.749,1.384-.053,2.78.04,4.154-.1,2.845-.286,4.682-2.517,4.694-5.547a5.276,5.276,0,0,0-4.551-5.59c-1.38-.207-2.77-.051-4.152-.127-.648-.035-.762.238-.751.808C-668.273,780.168-668.293,781.786-668.293,783.4Z" transform="translate(-529.827 -803.323)" fill="#fff"/>
    <path id="Path_3139" data-name="Path 3139" d="M-856.441,779.263c0-1.289.013-2.578-.006-3.867-.01-.628.06-1.114.868-1.123.782-.009.921.413.916,1.075-.02,2.611.016,5.222-.016,7.833a5.711,5.711,0,0,1-5.886,6,5.712,5.712,0,0,1-6.289-5.689c-.125-2.771-.028-5.551-.04-8.327,0-.63.29-.882.906-.894.693-.013.931.32.928.972-.01,2.643-.05,5.288.014,7.931a4.209,4.209,0,0,0,5.638,4.149,4.059,4.059,0,0,0,2.959-4c0-.066,0-.132,0-.2q0-1.933,0-3.866Z" transform="translate(-372.064 -801.814)" fill="#fff"/>
    <path id="Path_3140" data-name="Path 3140" d="M-576.807,781.746c1.4-2.272,2.746-4.457,4.094-6.642.329-.533.61-1.125,1.4-1.057.293.025.628-.049.818.236.218.326-.093.552-.238.786-1.5,2.406-2.994,4.82-4.539,7.2a3.711,3.711,0,0,0-.65,2.313c.057,1.153,0,2.311.019,3.466.011.619-.234.913-.87.917s-1.021-.214-.97-.918c.009-.131-.016-.267,0-.4a10.124,10.124,0,0,0-2.349-8.053,42.357,42.357,0,0,1-2.775-4.33c-.193-.315-.778-.705-.248-1.074a1.345,1.345,0,0,1,1.581.107,2.62,2.62,0,0,1,.52.714C-579.629,777.22-578.254,779.428-576.807,781.746Z" transform="translate(-599.386 -801.583)" fill="#fff"/>
    <path id="Path_3141" data-name="Path 3141" d="M-1000.739,781.813c0,2.046.009,4.091,0,6.137-.007,1.108-.211,1.269-1.488,1.273-1.37,0-1.6-.155-1.6-1.266q-.016-6.186,0-12.373c0-1.115.223-1.274,1.593-1.27,1.281,0,1.488.164,1.494,1.264C-1000.73,777.656-1000.739,779.735-1000.739,781.813Z" transform="translate(-262.311 -801.847)" fill="#fff"/>
    <g id="Group_2843" data-name="Group 2843" transform="translate(-1331.077 -226.011)">
      <path id="Path_3142" data-name="Path 3142" d="M-1331.059-52.408q0-86.346-.018-172.692c0-.744.167-.911.911-.911q92.145.03,184.289,0c.744,0,.911.167.911.911q-.03,86.346-.019,172.692c-.4.009-.792.026-1.188.026q-91.849,0-183.7,0C-1330.266-52.382-1330.662-52.4-1331.059-52.408ZM-1182.207-161.7c0-8.629-.015-17.258.022-25.887,0-.938-.207-1.215-1.186-1.213q-23.654.049-47.308,0c-.99,0-1.177.3-1.175,1.225q.043,23.258.02,46.516a4.66,4.66,0,0,1,0,.5c-.059.537.173.68.693.626,1.643-.172,3.29-.307,4.936-.452,5.629-.5,11.26-.977,16.887-1.5.765-.071,1.037.114,1.057.917a30.868,30.868,0,0,1-.518,7.5q-4.111,18.566-22.282,24.226c-.577.18-.787.387-.785,1q.035,8.926,0,17.853c0,.714.223.891.9.867a52.476,52.476,0,0,0,9.343-1.071,49.552,49.552,0,0,0,39.394-48.793C-1182.195-146.825-1182.207-154.263-1182.207-161.7Zm-111.629-.1c0,7.47.015,14.94,0,22.41a49.628,49.628,0,0,0,3.315,18.121,49.715,49.715,0,0,0,45.01,31.731c1.306.032,1.307.032,1.307-1.322,0-5.454-.029-10.908.026-16.361.01-.988-.284-1.31-1.241-1.5a31.132,31.132,0,0,1-24.9-26.837c-.1-.783.126-1,.889-1.061,8.033-.678,16.062-1.4,24.1-2.074.857-.071,1.158-.272,1.156-1.2q-.048-23.9,0-47.8c0-.864-.207-1.108-1.09-1.107q-23.748.042-47.5,0c-.9,0-1.082.272-1.079,1.117C-1293.824-179.057-1293.836-170.43-1293.836-161.8Z" transform="translate(1331.077 226.011)" fill="#fff"/>
      <path id="Path_3143" data-name="Path 3143" d="M-768.218,92.564a6.209,6.209,0,0,1,6.174-6.2,6.2,6.2,0,0,1,6.2,6.27,6.191,6.191,0,0,1-6.219,6.142A6.2,6.2,0,0,1-768.218,92.564Z" transform="translate(879.897 -24.388)" fill="#fff"/>
      <path id="Path_3144" data-name="Path 3144" d="M-1018.015,92.551a6.226,6.226,0,0,1,6.193-6.185,6.23,6.23,0,0,1,6.2,6.183,6.221,6.221,0,0,1-6.247,6.229A6.216,6.216,0,0,1-1018.015,92.551Z" transform="translate(1080.131 -24.386)" fill="#fff"/>
    </g>
  </g>
</svg>
