<svg id="Group_77" data-name="Group 77" xmlns="http://www.w3.org/2000/svg" xmlns:xlink="http://www.w3.org/1999/xlink" width="95.604" height="42.286" viewBox="0 0 95.604 42.286">
  <defs>
    <clipPath id="clip-path">
      <rect id="Rectangle_53" data-name="Rectangle 53" width="95.103" height="42.286" fill="#fff" stroke="rgba(0,0,0,0)" stroke-width="1"/>
    </clipPath>
  </defs>
  <g id="Group_74" data-name="Group 74" transform="translate(0 0)">
    <g id="Group_73" data-name="Group 73" clip-path="url(#clip-path)">
      <path id="Path_160" data-name="Path 160" d="M355.41,945.865a2.7,2.7,0,1,0,2.7-2.77,2.627,2.627,0,0,0-2.7,2.77m2.7,3.926a4.056,4.056,0,1,1,.009,0Z" transform="translate(-312.464 -911.427)" fill="#fff" stroke="rgba(0,0,0,0)" stroke-width="1"/>
      <path id="Path_161" data-name="Path 161" d="M367.977,945.872a2.777,2.777,0,0,1,.757-2.062,2.246,2.246,0,0,1,1.605-.652c3.334.009,3.334,5.417,0,5.427a2.26,2.26,0,0,1-1.605-.652,2.58,2.58,0,0,1-.757-2.062m6.159-.068a3.649,3.649,0,0,0-3.719-3.847h-.007a3.014,3.014,0,0,0-2.4,1.231l0-1.04h-1.227v11.265H368l0-4.857a3.016,3.016,0,0,0,2.4,1.231h.007a3.694,3.694,0,0,0,3.719-3.983" transform="translate(-306.449 -911.419)" fill="#fff" stroke="rgba(0,0,0,0)" stroke-width="1"/>
      <path id="Path_162" data-name="Path 162" d="M366.113,944.675c0,1.914-.179,2.725-.7,3.277a2.2,2.2,0,0,1-1.589.652,1.922,1.922,0,0,1-1.373-.449c-.282-.3-.463-.6-.477-1.629v-4.44h-1.242v4.274a5.862,5.862,0,0,0,.089,1.13,2.636,2.636,0,0,0,2.866,2.232,2.925,2.925,0,0,0,2.471-1.234v1.045h1.2v-7.447h-1.242Z" transform="translate(-309.34 -911.357)" fill="#fff" stroke="rgba(0,0,0,0)" stroke-width="1"/>
      <path id="Path_163" data-name="Path 163" d="M355.64,942.089a4.027,4.027,0,0,0-.995-.13,2.923,2.923,0,0,0-2.471,1.234v-1.045h-1.241V949.6h1.241v-2.589a10.056,10.056,0,0,1,.17-2.167,2.077,2.077,0,0,1,2.817-1.58Z" transform="translate(-314.021 -911.418)" fill="#fff" stroke="rgba(0,0,0,0)" stroke-width="1"/>
      <path id="Path_164" data-name="Path 164" d="M348.327,946.38a1.919,1.919,0,0,1-1.321-.482,1.647,1.647,0,0,1-.513-1.247,1.838,1.838,0,0,1,3.67,0,1.651,1.651,0,0,1-.513,1.247,1.917,1.917,0,0,1-1.323.483m-.092,6.309h-.015a3.3,3.3,0,0,1-2.079-.538,1.2,1.2,0,0,1-.505-.981,1.724,1.724,0,0,1,1.688-1.621,12.285,12.285,0,0,1,2.83.364,1.714,1.714,0,0,1,.749.426.869.869,0,0,1,.22.635,1.374,1.374,0,0,1-.6,1.122,3.853,3.853,0,0,1-2.286.594m4.038-10.511h-2.545a3.269,3.269,0,0,0-1.4-.3,3.1,3.1,0,0,0-2.066.74,2.772,2.772,0,0,0-.29,3.767,1.715,1.715,0,0,0-.873,1.4,1.259,1.259,0,0,0,.943,1.287,2.247,2.247,0,0,0-1.531,2.1c-.013,1.355,1.094,2.575,3.719,2.578a5.025,5.025,0,0,0,2.949-.777,2.429,2.429,0,0,0,1.073-1.986,1.952,1.952,0,0,0-.535-1.389,3.5,3.5,0,0,0-1.951-.874,20.778,20.778,0,0,0-2.391-.225c-.831-.044-1.069-.284-1.073-.644a.938.938,0,0,1,.452-.819,3.225,3.225,0,0,0,1.576.4,3.1,3.1,0,0,0,2.068-.742,2.665,2.665,0,0,0,.893-2.035,2.442,2.442,0,0,0-.4-1.4l1.391.08Z" transform="translate(-317.092 -911.458)" fill="#fff" stroke="rgba(0,0,0,0)" stroke-width="1"/>
    </g>
  </g>
  <path id="Path_165" data-name="Path 165" d="M380.505,921.639v2.671h5.754v17.317h2.795V924.31h5.937v-2.671Z" transform="translate(-299.887 -921.13)" fill="#fff" stroke="rgba(0,0,0,0)" stroke-width="1"/>
  <g id="Group_76" data-name="Group 76" transform="translate(0 0)">
    <g id="Group_75" data-name="Group 75" clip-path="url(#clip-path)">
      <path id="Path_166" data-name="Path 166" d="M372.473,933.856v-9.545h1.385a9.772,9.772,0,0,1,3.073.391,3.883,3.883,0,0,1,1.6.959,4.727,4.727,0,0,1,1.24,3.412,4.512,4.512,0,0,1-1.352,3.537,5.888,5.888,0,0,1-4.045,1.245Zm10.763,7.773-4.262-6.129a6.865,6.865,0,0,0,1.357-.942,7.163,7.163,0,0,0,2.292-5.483,7.279,7.279,0,0,0-1.977-5.261,6.933,6.933,0,0,0-2.74-1.655,13.17,13.17,0,0,0-4.047-.519h-3.231a.932.932,0,0,0-.745.232.916.916,0,0,0-.2.692v19.064h2.795v-5.1h1.9a11.88,11.88,0,0,0,1.864-.142l3.646,5.242Z" transform="translate(-305.062 -921.13)" fill="#fff" stroke="rgba(0,0,0,0)" stroke-width="1"/>
      <path id="Path_167" data-name="Path 167" d="M360,935.9l3.376-8.548,3.405,8.548Zm3.475-14.6c-.355,0-.6.213-.767.625-.724,1.746-7.948,19.873-7.948,19.873h2.9l1.283-3.225h8.928l1.3,3.225h3.107s-7.32-18.127-8.053-19.873c-.177-.421-.414-.625-.755-.625" transform="translate(-312.194 -921.295)" fill="#fff" stroke="rgba(0,0,0,0)" stroke-width="1"/>
      <path id="Path_168" data-name="Path 168" d="M348.308,932.584s-7.162-9.752-8.055-10.885a.838.838,0,0,0-.921-.37c-.341.093-.516.392-.516.84v19.623h2.795V928.17s4.466,5.971,6,8a.794.794,0,0,0,.661.371.768.768,0,0,0,.652-.367c3.22-4.361,6.082-8.247,6.082-8.247v13.866H357.8V922.169c0-.448-.174-.746-.517-.84a.839.839,0,0,0-.921.37c-.891,1.134-8.055,10.885-8.055,10.885" transform="translate(-319.813 -921.293)" fill="#fff" stroke="rgba(0,0,0,0)" stroke-width="1"/>
      <path id="Path_169" data-name="Path 169" d="M325.958,937.2l2.7-.838a4.631,4.631,0,0,0,4.527,3.13c2.09,0,3.676-1.132,3.676-2.977-.015-1.573-.783-2.349-2.328-3.187-1.447-.788-3.43-1.371-5.058-2.672a5.152,5.152,0,0,1-2.01-4.175c0-2.971,2.448-5.106,5.56-5.106a6.564,6.564,0,0,1,5.9,3.7l-2.561,1.165a3.7,3.7,0,0,0-3.342-2.156A2.473,2.473,0,0,0,330.3,926.5c0,1.324.649,2.056,2.378,2.947,1.444.743,3.395,1.348,4.991,2.684a5.54,5.54,0,0,1,2.023,4.388c0,3.6-3.149,5.681-6.521,5.678a7.421,7.421,0,0,1-7.217-4.994" transform="translate(-325.958 -921.256)" fill="#fff" stroke="rgba(0,0,0,0)" stroke-width="1"/>
    </g>
  </g>
</svg>
