<svg xmlns="http://www.w3.org/2000/svg" width="189.871" height="39.716" viewBox="0 0 189.871 39.716">
  <g id="Group_2970" data-name="Group 2970" transform="translate(17856 -5902.521)">
    <g id="Group_3049" data-name="Group 3049">
      <g id="Group_1356" data-name="Group 1356" transform="translate(-17813.035 5916.262)">
        <path id="Path_27" data-name="Path 27" d="M237.778,616.6a1.713,1.713,0,0,1-.318-.307,1.06,1.06,0,0,1-.194-.389.982.982,0,0,1,0-.468,1.637,1.637,0,0,1,.285-.572l.7-1.028a1.137,1.137,0,0,1,.749-.56,1.6,1.6,0,0,1,.976.263l.487.273a7.381,7.381,0,0,0,.664.332,4.776,4.776,0,0,0,.827.287,4.039,4.039,0,0,0,.976.11,2.1,2.1,0,0,0,1.3-.332.994.994,0,0,0,.421-.81,1.183,1.183,0,0,0-.534-.972,6.879,6.879,0,0,0-1.327-.754q-.8-.356-1.724-.755a8.337,8.337,0,0,1-1.724-1,5.259,5.259,0,0,1-1.327-1.45,3.982,3.982,0,0,1-.533-2.136,4.674,4.674,0,0,1,.442-2.044,4.814,4.814,0,0,1,1.217-1.589,5.346,5.346,0,0,1,1.836-1.015,7.171,7.171,0,0,1,2.29-.355,8.083,8.083,0,0,1,2.609.4,7.262,7.262,0,0,1,1.77.81,1.273,1.273,0,0,1,.567.789,1.543,1.543,0,0,1-.181.926l-.544,1.074q-.341.664-.783.674a1.853,1.853,0,0,1-.918-.239q-.568-.275-1.169-.514a3.762,3.762,0,0,0-1.394-.239,2.175,2.175,0,0,0-1.361.332,1.009,1.009,0,0,0-.408.811,1.174,1.174,0,0,0,.533.983,6.861,6.861,0,0,0,1.328.73q.793.344,1.724.72a8.044,8.044,0,0,1,1.723.96,5.134,5.134,0,0,1,1.328,1.438,3.982,3.982,0,0,1,.533,2.136,5.171,5.171,0,0,1-.375,1.953,4.639,4.639,0,0,1-1.1,1.623,5.3,5.3,0,0,1-1.793,1.106,6.681,6.681,0,0,1-2.426.411,8.213,8.213,0,0,1-1.644-.16,10.718,10.718,0,0,1-1.451-.4,8.689,8.689,0,0,1-1.2-.527,5.715,5.715,0,0,1-.85-.536" transform="translate(-237.239 -601.329)" fill="#fff"/>
        <path id="Path_28" data-name="Path 28" d="M263.915,613.011a1.877,1.877,0,0,0-.43-1.245,1.456,1.456,0,0,0-1.18-.515,1.574,1.574,0,0,0-1.292.526,2.9,2.9,0,0,0-.588,1.234Zm-7.6,1.485a6.81,6.81,0,0,1,.419-2.422,5.533,5.533,0,0,1,3.123-3.24,6.476,6.476,0,0,1,2.544-.479,5.812,5.812,0,0,1,2.3.435,4.924,4.924,0,0,1,1.7,1.188,4.994,4.994,0,0,1,1.043,1.782,6.824,6.824,0,0,1,.352,2.213,1.341,1.341,0,0,1-.363.885,1.189,1.189,0,0,1-.952.423h-6.146a2.349,2.349,0,0,0,1,1.582,3.123,3.123,0,0,0,1.723.5,4.028,4.028,0,0,0,1.134-.159,5.969,5.969,0,0,0,1-.39,1.585,1.585,0,0,1,.976-.16,1.134,1.134,0,0,1,.7.64l.317.6a1.478,1.478,0,0,1,.181.978,1.141,1.141,0,0,1-.612.747,9.358,9.358,0,0,1-1.645.714,7.343,7.343,0,0,1-2.37.345,6.83,6.83,0,0,1-2.766-.525,6.009,6.009,0,0,1-2.007-1.383,5.828,5.828,0,0,1-1.226-1.976,6.45,6.45,0,0,1-.419-2.284" transform="translate(-243.916 -603.788)" fill="#fff"/>
        <path id="Path_29" data-name="Path 29" d="M279.105,616.731a.993.993,0,0,0,.283.709,1.094,1.094,0,0,0,.829.3,1.658,1.658,0,0,0,.794-.194,2.406,2.406,0,0,0,.635-.49,2.177,2.177,0,0,0,.419-.664,1.917,1.917,0,0,0,.147-.731v-.32h-.358a6.908,6.908,0,0,0-.941.069,3.781,3.781,0,0,0-.885.229,1.942,1.942,0,0,0-.664.422.908.908,0,0,0-.26.674m-3.879.366a3.031,3.031,0,0,1,.623-1.964,4.427,4.427,0,0,1,1.6-1.234,7.908,7.908,0,0,1,2.132-.64,14.171,14.171,0,0,1,2.244-.183h.341v-.206a1.07,1.07,0,0,0-.5-1.016,2.308,2.308,0,0,0-1.158-.286,3.986,3.986,0,0,0-1.106.16,7.541,7.541,0,0,0-1,.365,1.139,1.139,0,0,1-1.574-.344,1.208,1.208,0,0,1-.11-.209l-.272-.57a1.41,1.41,0,0,1-.136-.972,1.152,1.152,0,0,1,.636-.72,11.1,11.1,0,0,1,1.659-.617,7.91,7.91,0,0,1,2.268-.3,5.47,5.47,0,0,1,3.823,1.269,4.535,4.535,0,0,1,1.394,3.53v5.98a1.106,1.106,0,0,1-.933,1.256h0a1.145,1.145,0,0,1-.313,0h-1.089a1.116,1.116,0,0,1-1.251-.96h0a1.182,1.182,0,0,1,0-.318v-.251a.091.091,0,0,1,.022-.068h-.046a4.106,4.106,0,0,1-.838.935,4.343,4.343,0,0,1-1.088.652,3.765,3.765,0,0,1-1.52.285,4.2,4.2,0,0,1-1.541-.273,3.624,3.624,0,0,1-1.2-.755,3.45,3.45,0,0,1-.782-1.143,3.565,3.565,0,0,1-.283-1.418" transform="translate(-250.534 -603.788)" fill="#fff"/>
        <path id="Path_30" data-name="Path 30" d="M295.217,610.306a1.106,1.106,0,0,1,.935-1.254,1.136,1.136,0,0,1,.312,0h1.271a1.1,1.1,0,0,1,1.228.944h0a1.124,1.124,0,0,1,0,.31v.205a.43.43,0,0,1-.011.091.35.35,0,0,0-.012.091v.111h.046a8.368,8.368,0,0,1,.51-.664,3.73,3.73,0,0,1,.738-.664,4.378,4.378,0,0,1,.985-.5,3.532,3.532,0,0,1,1.237-.206,3.856,3.856,0,0,1,1.962.491,3.169,3.169,0,0,1,1.3,1.5h.046a3.651,3.651,0,0,1,.6-.72,4.9,4.9,0,0,1,.85-.639,4.558,4.558,0,0,1,1.054-.457,4.3,4.3,0,0,1,1.237-.172,4.737,4.737,0,0,1,1.485.229,2.934,2.934,0,0,1,1.2.755,3.672,3.672,0,0,1,.805,1.371,6.248,6.248,0,0,1,.3,2.057v6.374a1.107,1.107,0,0,1-1.248,1.256h-1.428a1.107,1.107,0,0,1-1.248-.944,1.134,1.134,0,0,1,0-.312v-5.711a2.866,2.866,0,0,0-.17-1.074.709.709,0,0,0-.738-.411,1.84,1.84,0,0,0-1.065.3,2.2,2.2,0,0,0-.691.774,3.682,3.682,0,0,0-.374,1.106,7.163,7.163,0,0,0-.111,1.291v3.724a1.1,1.1,0,0,1-1.247,1.255h-1.429a1.106,1.106,0,0,1-1.248-.943,1.146,1.146,0,0,1,0-.312v-5.712a2.841,2.841,0,0,0-.17-1.074.712.712,0,0,0-.736-.411,1.819,1.819,0,0,0-1.106.32,2.284,2.284,0,0,0-.681.811,3.821,3.821,0,0,0-.352,1.106,7.536,7.536,0,0,0-.1,1.233v3.728a1.106,1.106,0,0,1-.935,1.255,1.1,1.1,0,0,1-.312,0h-1.429a1.106,1.106,0,0,1-1.248-.943,1.139,1.139,0,0,1,0-.312Z" transform="translate(-257.528 -603.932)" fill="#fff"/>
        <path id="Path_31" data-name="Path 31" d="M326.269,603.239a1.106,1.106,0,0,1,.933-1.255h0a1.151,1.151,0,0,1,.313,0h1.428a1.109,1.109,0,0,1,1.247,1.257V613.8a1.456,1.456,0,0,0,.193.892.761.761,0,0,0,.465.273.951.951,0,0,1,.915.985h0q0,.045-.008.09v1.119a1.394,1.394,0,0,1-.294.937,1.225,1.225,0,0,1-.976.343,8.5,8.5,0,0,1-1.508-.137,3.037,3.037,0,0,1-1.36-.606,3.276,3.276,0,0,1-.976-1.347,6.149,6.149,0,0,1-.374-2.365Z" transform="translate(-268.396 -601.554)" fill="#fff"/>
        <path id="Path_32" data-name="Path 32" d="M343.5,613.016a1.883,1.883,0,0,0-.431-1.246,1.455,1.455,0,0,0-1.18-.514,1.575,1.575,0,0,0-1.292.525,2.9,2.9,0,0,0-.588,1.235Zm-7.6,1.484a6.813,6.813,0,0,1,.421-2.422,5.519,5.519,0,0,1,3.117-3.245,6.477,6.477,0,0,1,2.545-.479,5.812,5.812,0,0,1,2.3.435,4.922,4.922,0,0,1,1.7,1.188,5,5,0,0,1,1.043,1.782,6.828,6.828,0,0,1,.352,2.213,1.338,1.338,0,0,1-.363.885,1.187,1.187,0,0,1-.951.423h-6.153a2.349,2.349,0,0,0,1,1.582,3.125,3.125,0,0,0,1.723.5,4.028,4.028,0,0,0,1.134-.159,5.948,5.948,0,0,0,1-.39,1.585,1.585,0,0,1,.976-.16,1.134,1.134,0,0,1,.7.64l.317.6a1.478,1.478,0,0,1,.181.978,1.141,1.141,0,0,1-.612.747,9.336,9.336,0,0,1-1.645.714,7.342,7.342,0,0,1-2.369.345,6.831,6.831,0,0,1-2.766-.525,6.01,6.01,0,0,1-2.007-1.383,5.824,5.824,0,0,1-1.225-1.976,6.423,6.423,0,0,1-.421-2.284" transform="translate(-271.771 -603.788)" fill="#fff"/>
        <path id="Path_33" data-name="Path 33" d="M355.723,619.586a1.022,1.022,0,0,1-.579-.755,1.541,1.541,0,0,1,.261-.983l.341-.525a1.182,1.182,0,0,1,.737-.571,1.715,1.715,0,0,1,.985.2q.431.182.976.4a3.332,3.332,0,0,0,1.247.221,1.329,1.329,0,0,0,.829-.194.587.587,0,0,0,.239-.468.618.618,0,0,0-.408-.553,7.3,7.3,0,0,0-1.01-.4q-.6-.192-1.315-.434a5.072,5.072,0,0,1-1.316-.664,3.579,3.579,0,0,1-1.009-1.1,3.54,3.54,0,0,1,1-4.478,4.794,4.794,0,0,1,1.541-.708,7.309,7.309,0,0,1,1.905-.241,6.748,6.748,0,0,1,1.94.252,10.831,10.831,0,0,1,1.371.5,1.008,1.008,0,0,1,.612.708,1.575,1.575,0,0,1-.159.983l-.272.553a1.083,1.083,0,0,1-.657.664,1.6,1.6,0,0,1-1-.11c-.272-.111-.575-.209-.907-.309a3.83,3.83,0,0,0-1.089-.148,1.318,1.318,0,0,0-.839.183.561.561,0,0,0-.2.435.594.594,0,0,0,.408.538,8.124,8.124,0,0,0,1.009.387l1.316.424a4.792,4.792,0,0,1,1.316.651,3.693,3.693,0,0,1,1.01,1.074,3.128,3.128,0,0,1,.408,1.679,3.589,3.589,0,0,1-.332,1.531,3.461,3.461,0,0,1-.952,1.223,4.674,4.674,0,0,1-1.52.811,6.383,6.383,0,0,1-2.006.3,6.716,6.716,0,0,1-2.29-.354,9.409,9.409,0,0,1-1.588-.72" transform="translate(-278.506 -603.783)" fill="#fff"/>
        <path id="Path_34" data-name="Path 34" d="M371.776,619.586a1.02,1.02,0,0,1-.578-.755,1.538,1.538,0,0,1,.261-.983l.341-.525a1.179,1.179,0,0,1,.736-.571,1.718,1.718,0,0,1,.986.2q.43.182.976.4a3.337,3.337,0,0,0,1.247.221,1.327,1.327,0,0,0,.829-.194.586.586,0,0,0,.239-.468.619.619,0,0,0-.408-.553,7.331,7.331,0,0,0-1.01-.4q-.6-.192-1.316-.434a5.1,5.1,0,0,1-1.316-.664,3.576,3.576,0,0,1-1.009-1.1,3.232,3.232,0,0,1-.41-1.7,3.273,3.273,0,0,1,1.407-2.776,4.794,4.794,0,0,1,1.541-.708,7.309,7.309,0,0,1,1.905-.241,6.748,6.748,0,0,1,1.94.252,10.835,10.835,0,0,1,1.371.5,1.009,1.009,0,0,1,.612.708,1.574,1.574,0,0,1-.159.983l-.272.553a1.081,1.081,0,0,1-.657.664,1.6,1.6,0,0,1-1-.11c-.273-.111-.577-.209-.907-.309a3.829,3.829,0,0,0-1.088-.148,1.319,1.319,0,0,0-.839.183.564.564,0,0,0-.2.435.6.6,0,0,0,.408.538,8.141,8.141,0,0,0,1.009.387q.6.2,1.316.424a4.791,4.791,0,0,1,1.316.651,3.685,3.685,0,0,1,1.01,1.074,3.128,3.128,0,0,1,.408,1.679,3.589,3.589,0,0,1-.332,1.531,3.441,3.441,0,0,1-.951,1.223,4.675,4.675,0,0,1-1.52.811,6.387,6.387,0,0,1-2.007.3,6.721,6.721,0,0,1-2.291-.354,9.276,9.276,0,0,1-1.587-.72" transform="translate(-284.125 -603.783)" fill="#fff"/>
        <path id="Path_35" data-name="Path 35" d="M389.239,607.647a.341.341,0,0,1,.287-.387h0a.3.3,0,0,1,.1,0h.182a.343.343,0,0,1,.386.294h0a.318.318,0,0,1,0,.093V618.3a.341.341,0,0,1-.287.388h0a.357.357,0,0,1-.1,0h-.183a.342.342,0,0,1-.386-.289h0a.366.366,0,0,1,0-.1Zm.294-3.29a.342.342,0,0,1-.386-.288h0a.279.279,0,0,1,0-.1v-.892a.342.342,0,0,1,.287-.388.367.367,0,0,1,.1,0h.363a.342.342,0,0,1,.386.291h0a.345.345,0,0,1,0,.1v.892a.342.342,0,0,1-.288.389h0a.339.339,0,0,1-.1,0Z" transform="translate(-290.408 -601.804)" fill="#fff"/>
        <path id="Path_36" data-name="Path 36" d="M396.43,612.551a6.89,6.89,0,0,0,.294,2.1,4.994,4.994,0,0,0,.817,1.6,3.509,3.509,0,0,0,2.833,1.377,4.144,4.144,0,0,0,1.507-.288,3.361,3.361,0,0,0,1.292-.907,4.641,4.641,0,0,0,.9-1.583,6.99,6.99,0,0,0,.34-2.323,7.389,7.389,0,0,0-.239-1.871,4.872,4.872,0,0,0-.736-1.607,4.035,4.035,0,0,0-1.237-1.136,3.345,3.345,0,0,0-1.735-.435,3.7,3.7,0,0,0-2.857,1.327,4.8,4.8,0,0,0-.863,1.6,6.8,6.8,0,0,0-.318,2.146m-1,0a7.585,7.585,0,0,1,.374-2.467,5.616,5.616,0,0,1,1.054-1.881,4.638,4.638,0,0,1,1.611-1.217,4.86,4.86,0,0,1,2.041-.422,3.7,3.7,0,0,1,1.825.411,5.377,5.377,0,0,1,1.217.885,4.938,4.938,0,0,1,.885,1.28h.046c-.016-.091-.031-.182-.046-.273a2.122,2.122,0,0,1-.034-.287c-.007-.11-.012-.239-.012-.376v-5.544a.341.341,0,0,1,.287-.388.357.357,0,0,1,.1,0h.181a.342.342,0,0,1,.386.291h0a.35.35,0,0,1,0,.1v15.217a.342.342,0,0,1-.288.388h0a.343.343,0,0,1-.1,0h-.177a.342.342,0,0,1-.386-.289h0a.357.357,0,0,1,0-.1v-1.05a3.376,3.376,0,0,1,.012-.354,2,2,0,0,1,.034-.285c.014-.091.03-.168.045-.23h-.045a4.247,4.247,0,0,1-.885,1.3,4.869,4.869,0,0,1-1.258.885,4.287,4.287,0,0,1-1.963.4,4.694,4.694,0,0,1-2.041-.434,4.4,4.4,0,0,1-1.542-1.223,5.622,5.622,0,0,1-.976-1.9,8.289,8.289,0,0,1-.339-2.434" transform="translate(-292.608 -601.656)" fill="#fff"/>
        <path id="Path_37" data-name="Path 37" d="M424.457,613.8a5.307,5.307,0,0,0-.352-1.785,3.725,3.725,0,0,0-.805-1.241,3.1,3.1,0,0,0-1.145-.735,3.918,3.918,0,0,0-1.349-.238,4.66,4.66,0,0,0-1.519.248,4.088,4.088,0,0,0-1.328.757,4.386,4.386,0,0,0-1.01,1.254,5.365,5.365,0,0,0-.567,1.738Zm-9.139,1.1a6.751,6.751,0,0,1,.453-2.559,5.637,5.637,0,0,1,1.217-1.88,5.12,5.12,0,0,1,1.758-1.165,5.54,5.54,0,0,1,2.086-.4,4.747,4.747,0,0,1,1.974.389,4.033,4.033,0,0,1,1.451,1.1,4.833,4.833,0,0,1,.9,1.713,7.656,7.656,0,0,1,.307,2.239.365.365,0,0,1-.111.287.431.431,0,0,1-.3.1h-8.74a5.981,5.981,0,0,0,.386,2.213,4.856,4.856,0,0,0,1.054,1.654,4.421,4.421,0,0,0,1.541,1.02,5.057,5.057,0,0,0,1.871.344,4.454,4.454,0,0,0,1.089-.125,6.093,6.093,0,0,0,.907-.3,4.184,4.184,0,0,0,.714-.376,4.857,4.857,0,0,0,.488-.366c.211-.168.386-.145.521.069l.137.182a.323.323,0,0,1-.025.456h0a.384.384,0,0,1-.066.045,4.457,4.457,0,0,1-.553.408,5.315,5.315,0,0,1-.827.426,7.2,7.2,0,0,1-1.078.346,5.568,5.568,0,0,1-1.3.145,6.068,6.068,0,0,1-2.268-.422,5.555,5.555,0,0,1-1.861-1.2,5.7,5.7,0,0,1-1.258-1.874,6.267,6.267,0,0,1-.464-2.467" transform="translate(-299.569 -603.975)" fill="#fff"/>
        <path id="Path_38" data-name="Path 38" d="M434.921,617.455a2.367,2.367,0,0,0,.725,1.695,2.7,2.7,0,0,0,.907.569,3.416,3.416,0,0,0,1.27.222,3.185,3.185,0,0,0,1.659-.432,3.929,3.929,0,0,0,1.217-1.126,5.389,5.389,0,0,0,.748-1.559,5.917,5.917,0,0,0,.262-1.707V614.5h-.726c-.319,0-.687,0-1.106.011s-.858.038-1.315.091a8.73,8.73,0,0,0-1.328.262,4.245,4.245,0,0,0-1.157.512,2.669,2.669,0,0,0-.829.842,2.308,2.308,0,0,0-.317,1.24m-1,.071a3.252,3.252,0,0,1,.386-1.639,3.428,3.428,0,0,1,1-1.106,4.888,4.888,0,0,1,1.382-.676,10.131,10.131,0,0,1,1.549-.356,13.265,13.265,0,0,1,1.5-.137c.476-.016.885-.022,1.217-.022h.749v-.389a4.989,4.989,0,0,0-.221-1.611,2.6,2.6,0,0,0-.646-1.051,2.44,2.44,0,0,0-.986-.571,4.284,4.284,0,0,0-1.247-.172,4.732,4.732,0,0,0-1.793.307,7.236,7.236,0,0,0-1.133.56.362.362,0,0,1-.51-.042h0a.417.417,0,0,1-.034-.049l-.091-.137a.332.332,0,0,1-.042-.467.32.32,0,0,1,.109-.086,7.105,7.105,0,0,1,1.292-.637,6.013,6.013,0,0,1,2.246-.368,3.917,3.917,0,0,1,2.987,1.086,4.558,4.558,0,0,1,1.02,3.233v6.991a.343.343,0,0,1-.289.389h0a.4.4,0,0,1-.1,0H442.1a.344.344,0,0,1-.387-.293h0a.345.345,0,0,1,0-.1v-1.118c0-.153,0-.293.011-.422s.019-.241.033-.332.031-.2.046-.274h-.046a6.015,6.015,0,0,1-.873,1.4,4.646,4.646,0,0,1-1.225.972,3.712,3.712,0,0,1-1.871.434,5.051,5.051,0,0,1-1.372-.194,3.793,3.793,0,0,1-1.248-.607,3.182,3.182,0,0,1-.895-1.032,3.055,3.055,0,0,1-.341-1.49" transform="translate(-306.084 -603.97)" fill="#fff"/>
        <path id="Path_39" data-name="Path 39" d="M451.7,619.508a.331.331,0,0,1-.1-.458h0l.007-.01a.332.332,0,0,1,.047-.057l.135-.161c.152-.183.332-.19.545-.022a4.14,4.14,0,0,0,.476.354,5.011,5.011,0,0,0,.7.376,5.375,5.375,0,0,0,.918.308,4.629,4.629,0,0,0,1.123.125,3.559,3.559,0,0,0,1-.138,2.413,2.413,0,0,0,.829-.415,2.189,2.189,0,0,0,.567-.679,1.969,1.969,0,0,0,.214-.933,1.57,1.57,0,0,0-.465-1.185,4.646,4.646,0,0,0-1.157-.794,13.007,13.007,0,0,0-1.5-.631,8.459,8.459,0,0,1-1.5-.7,4.21,4.21,0,0,1-1.156-1,2.352,2.352,0,0,1-.465-1.516,2.9,2.9,0,0,1,.3-1.334,2.808,2.808,0,0,1,.794-.969,3.442,3.442,0,0,1,1.157-.583,4.885,4.885,0,0,1,1.384-.194,5.91,5.91,0,0,1,1.123.1,5.047,5.047,0,0,1,.9.255,4.629,4.629,0,0,1,.646.312,3.4,3.4,0,0,1,.421.291.345.345,0,0,1,.13.471h0a.419.419,0,0,1-.038.055l-.137.183a.339.339,0,0,1-.465.111.325.325,0,0,1-.079-.068,4.427,4.427,0,0,0-.952-.525,4.09,4.09,0,0,0-1.611-.273,3.886,3.886,0,0,0-.941.111,2.473,2.473,0,0,0-.829.368,1.864,1.864,0,0,0-.578.656,1.977,1.977,0,0,0-.221.956,1.639,1.639,0,0,0,.465,1.217,4.251,4.251,0,0,0,1.156.794q.692.332,1.5.63a9.706,9.706,0,0,1,1.5.7,3.9,3.9,0,0,1,1.157,1,2.457,2.457,0,0,1,.465,1.54,2.878,2.878,0,0,1-.273,1.255,2.786,2.786,0,0,1-.76.97,3.682,3.682,0,0,1-1.156.627,4.415,4.415,0,0,1-1.438.228,6.19,6.19,0,0,1-2.5-.5,4.8,4.8,0,0,1-.816-.449,3.949,3.949,0,0,1-.522-.42" transform="translate(-312.25 -603.979)" fill="#fff"/>
      </g>
      <g id="Group_1357" data-name="Group 1357" transform="translate(-17856 5902.521)">
        <g id="Group_1354" data-name="Group 1354" transform="translate(7.626 7.921)">
          <path id="Path_1381" data-name="Path 1381" d="M208.822,606.887c-.353-.578-.724-1.145-1.1-1.706a2,2,0,0,1-.333-1.519q.038-.172.068-.346v-.01a6.435,6.435,0,0,0-2.362-6.121l-.013-.011c-.149-.118-.306-.226-.467-.33-.015-.01-.028-.021-.043-.031-.136-.088-.279-.165-.424-.242-.041-.023-.081-.049-.124-.071-.125-.063-.256-.117-.386-.176-.066-.028-.13-.062-.2-.088-.117-.045-.238-.08-.358-.119-.088-.027-.169-.06-.256-.088-.1-.029-.21-.047-.314-.07s-.215-.053-.325-.072h-.008a17.531,17.531,0,0,0-6.66-.148,8.575,8.575,0,0,0-7.237,5.859,8.35,8.35,0,0,0,1.831,9.034c.433.473.857.954,1.307,1.411.161.163.317.328.467.5a5.631,5.631,0,0,1,1.7,4.121v.08c.019.415,1.062.969,2.494,1.49a15.543,15.543,0,0,0-.457-7.127,26.058,26.058,0,0,0-2.267-4.042c-1.376-2.412-.7-4.884,1.622-5.664a2.2,2.2,0,0,0,.861-.626c1.716-1.752,3.851-1.5,5.288.536a7.64,7.64,0,0,1,1.005,5.716c-.568,4.1-1.525,8.135-1.843,12.279,0,.023-.009.043-.01.065a17.633,17.633,0,0,0,2.2.294h0c.548.03.7-.409.705-.872s.024-.931.027-1.4v-.041c0-.451,0-.9-.039-1.35h0a.8.8,0,0,1-.014-.272.857.857,0,0,1,.041-.161.826.826,0,0,1,.048-.134.861.861,0,0,1,.088-.122.838.838,0,0,1,.1-.112.71.71,0,0,1,.123-.075.741.741,0,0,1,.418-.113c.352-.044.705-.08,1.057-.115s.706-.068,1.058-.108c.814-.087,1.564-.463,1.556-1.322a14.469,14.469,0,0,1,.388-2.635,7.859,7.859,0,0,0,.111-.872,4.068,4.068,0,0,1,.082-.793,1.02,1.02,0,0,1,.162-.341,1.3,1.3,0,0,1,.332-.313C209.318,608.12,209.163,607.449,208.822,606.887Z" transform="translate(-187.67 -595.488)" fill="#f64984"/>
          <path id="Path_1382" data-name="Path 1382" d="M201.7,603.573c-.623-.719-1.411-.689-2.5-.422,1.067.685,1.851,1.213,1.881,2.435a1.887,1.887,0,0,1-1.2,2.115,2.079,2.079,0,0,1-2.282-1.234c-.094-.2-.115-.44-.225-.627-.157-.264-.056-.782-.491-.768s-.6.424-.756.826c-.487,1.234.189,2.123.8,2.969a13.869,13.869,0,0,1,2.828,8.518,27.491,27.491,0,0,1-.363,3.113c.541.163,1.105.317,1.675.452a42.916,42.916,0,0,1,.71-5.728c.441-2.837,1.213-5.619,1.2-8.53A4.662,4.662,0,0,0,201.7,603.573Z" transform="translate(-189.708 -597.33)" fill="#f64984"/>
          <path id="Path_1383" data-name="Path 1383" d="M200.13,606.68h.067c.319.014.406-.225.389-.568a1.137,1.137,0,0,0-.934-.881c-.4-.093-.325.3-.311.529A.862.862,0,0,0,200.13,606.68Z" transform="translate(-190.537 -597.881)" fill="#f64984"/>
        </g>
        <path id="Path_42" data-name="Path 42" d="M202.006,630.492a11.434,11.434,0,0,1-6.8-1.851,3.938,3.938,0,0,1-.589-.447c-.256-.226-.448-.522-.259-.847.228-.4.624-.259.946-.132.656.256,1.146.779,1.822,1.058a11.627,11.627,0,0,0,6.622.845.559.559,0,0,1,.719.327v0h0a.55.55,0,0,1,.035.185.654.654,0,0,1-.428.818h0a.619.619,0,0,1-.161.029c-.63.063-1.271.016-1.906.016" transform="translate(-181.67 -595.339)" fill="#f64984"/>
        <path id="Path_43" data-name="Path 43" d="M201.226,633.908a11.041,11.041,0,0,1-5.811-1.638c-.336-.223-.738-.424-.425-.9.264-.4.572-.16.914,0a11.985,11.985,0,0,0,5.863,1.479c.4-.023,1.146-.338,1.146.483-.006.727-.688.535-1.154.569-.176.013-.353,0-.529,0" transform="translate(-181.816 -596.34)" fill="#f64984"/>
        <path id="Path_44" data-name="Path 44" d="M201.864,587.9v1.921c0,.431-.125.805-.626.825s-.667-.323-.676-.768q-.048-2.027-.088-4.061c-.01-.441.141-.8.625-.826s.656.315.651.774c-.008.712,0,1.425,0,2.137h.119" transform="translate(-183.193 -584.984)" fill="#f64984"/>
        <path id="Path_45" data-name="Path 45" d="M218.46,590.472a1.058,1.058,0,0,1-.352.641l-2.66,2.769c-.311.324-.656.637-1.084.228-.412-.393-.185-.783.131-1.116q1.392-1.471,2.8-2.929a.617.617,0,0,1,.767-.185.714.714,0,0,1,.4.592" transform="translate(-186.554 -586.172)" fill="#f64984"/>
        <path id="Path_46" data-name="Path 46" d="M184.785,625.327a.641.641,0,0,1-.64-.374.581.581,0,0,1,.1-.7c1.028-1.084,2.056-2.164,3.1-3.23a.558.558,0,0,1,.777-.029.578.578,0,0,1,.2.792h0c-.013.02-.027.041-.042.06-1.05,1.155-2.146,2.27-3.234,3.39-.064.066-.195.069-.254.088" transform="translate(-179.159 -593.806)" fill="#f64984"/>
        <path id="Path_47" data-name="Path 47" d="M184.639,590.531a1.124,1.124,0,0,1,.74.416c.866.839,1.739,1.675,2.606,2.508.353.336.682.734.273,1.189-.431.479-.822.126-1.169-.209q-1.341-1.29-2.684-2.578a.857.857,0,0,1-.321-.947.606.606,0,0,1,.556-.381" transform="translate(-179.152 -586.348)" fill="#f64984"/>
        <path id="Path_48" data-name="Path 48" d="M219.985,625.98c-.324.037-.523-.176-.726-.374-.916-.889-1.827-1.783-2.748-2.667-.346-.332-.561-.693-.155-1.091.352-.346.705-.182,1.019.124q1.449,1.41,2.909,2.812a.76.76,0,0,1,.208.872.53.53,0,0,1-.5.326" transform="translate(-187.045 -594.003)" fill="#f64984"/>
        <path id="Path_49" data-name="Path 49" d="M221.027,608.718c-.705,0-1.41.006-2.115,0a.573.573,0,0,1-.63-.506c0-.022,0-.045,0-.066a.6.6,0,0,1,.625-.7c1.447-.029,2.895-.028,4.342-.047a.566.566,0,0,1,.639.482.479.479,0,0,1,.005.073.627.627,0,0,1-.542.7h0a.641.641,0,0,1-.087,0c-.739.043-1.483.013-2.223.013Z" transform="translate(-187.571 -590.495)" fill="#f64984"/>
        <path id="Path_50" data-name="Path 50" d="M179.959,609.574c-.565,0-1.133-.02-1.7.006-.452.021-.723-.041-.705-.617.013-.507.176-.692.675-.688,1.234.01,2.475-.011,3.711-.03.441-.007.81.115.814.617,0,.473-.33.676-.782.678H179.96v.035" transform="translate(-177.556 -590.705)" fill="#f64984"/>
        <path id="Path_51" data-name="Path 51" d="M199.723,636.961a6.461,6.461,0,0,1-3.3-.954c-.358-.209-.558-.464-.352-.862.218-.43.566-.339.906-.148a6.2,6.2,0,0,0,3.438.9c.344-.02.872-.176.873.456,0,.617-.481.6-.918.606h-.636" transform="translate(-182.088 -597.246)" fill="#f64984"/>
      </g>
    </g>
  </g>
</svg>
