<svg xmlns="http://www.w3.org/2000/svg" width="75.668" height="86.798" viewBox="0 0 75.668 86.798">
  <g id="Group_2844" data-name="Group 2844" transform="translate(1331.077 226.011)">
    <path id="Path_3134" data-name="Path 3134" d="M-1100.43,778.157c0-1.151,0-2.172,0-3.191,0-.208-.059-.479.2-.556a1.292,1.292,0,0,1,.866.024c.142.06.15.215.15.35,0,1.719.007,3.438,0,5.157a.452.452,0,0,1-.753.344,1.823,1.823,0,0,1-.367-.368c-.911-1.092-1.818-2.187-2.732-3.288-.136.116-.07.258-.071.378-.007.927,0,1.853,0,2.78,0,.5-.068.548-.655.545-.507,0-.56-.052-.561-.551q0-2.437,0-4.875c0-.211-.047-.45.223-.546a.593.593,0,0,1,.691.189c.368.428.727.862,1.088,1.3C-1101.738,776.585-1101.124,777.324-1100.43,778.157Z" transform="translate(-208.429 -919.634)" fill="#fff"/>
    <path id="Path_3135" data-name="Path 3135" d="M-1206.031,776.326c0-.524-.005-1.048,0-1.572.005-.412.1-.466.651-.47.328,0,.579.029.571.467-.018.994-.023,1.989,0,2.983a1.425,1.425,0,0,0,1.878,1.443,1.379,1.379,0,0,0,1-1.4c.014-.981,0-1.962.006-2.943,0-.487.074-.549.61-.548s.6.065.6.565c0,.941.009,1.881,0,2.822a2.65,2.65,0,0,1-4,2.357,2.449,2.449,0,0,1-1.306-2.213c-.023-.5,0-.994,0-1.491Z" transform="translate(-114.954 -919.601)" fill="#fff"/>
    <path id="Path_3136" data-name="Path 3136" d="M-948.86,777.113a1.6,1.6,0,0,1,1.079,1.64,1.681,1.681,0,0,1-1.6,1.5,18.98,18.98,0,0,1-2.5.051c-.212,0-.314-.115-.314-.331q0-2.7,0-5.4c0-.25.147-.327.364-.323.725.013,1.452-.043,2.175.039a1.5,1.5,0,0,1,1.463,1.063A1.462,1.462,0,0,1-948.86,777.113Zm-2.581,1.451c0,.282,0,.564,0,.846,0,.13,0,.245.181.24a11.237,11.237,0,0,0,1.85-.057.976.976,0,0,0,.869-1.152,1.039,1.039,0,0,0-1.013-.922c-.548-.041-1.1-.015-1.651-.031-.209-.006-.244.094-.237.27C-951.434,778.026-951.441,778.3-951.441,778.564Zm0-2.692c0,.268,0,.537,0,.8,0,.117.01.219.164.214a9.71,9.71,0,0,0,1.646-.047.9.9,0,0,0,.758-.987.884.884,0,0,0-.833-.919,5.32,5.32,0,0,0-.762-.042C-951.441,774.891-951.442,774.893-951.441,775.872Z" transform="translate(-348.325 -919.563)" fill="#fff"/>
    <path id="Path_3137" data-name="Path 3137" d="M-770.287,777.29c0-.872.007-1.744,0-2.616,0-.286.094-.428.391-.42.818.021,1.637-.045,2.453.044a2.827,2.827,0,0,1,2.59,2.963,2.835,2.835,0,0,1-2.58,3.015c-.829.09-1.663.024-2.494.041-.284.005-.363-.149-.36-.409C-770.282,779.035-770.287,778.163-770.287,777.29Zm.744-.03c0,.7,0,1.4,0,2.1,0,.189.02.3.255.292.523-.018,1.049.012,1.572-.018a2.191,2.191,0,0,0,2.111-2.339,2.19,2.19,0,0,0-2.1-2.349c-.522-.032-1.048,0-1.572-.02-.218-.007-.271.076-.268.28C-769.536,775.89-769.543,776.575-769.543,777.26Z" transform="translate(-515.547 -919.57)" fill="#fff"/>
    <path id="Path_3138" data-name="Path 3138" d="M-670.1,779.095c0-.819.012-1.638-.006-2.457-.007-.342.1-.5.459-.482.777.03,1.557-.043,2.334.048a2.769,2.769,0,0,1,2.518,2.93,2.772,2.772,0,0,1-2.558,2.9c-.79.081-1.583.021-2.375.036-.274.005-.379-.125-.376-.4C-670.093,780.813-670.1,779.954-670.1,779.095Zm.73.008c0,.671,0,1.342,0,2.013,0,.177,0,.314.244.3.563-.021,1.13.016,1.689-.04a2.118,2.118,0,0,0,1.908-2.255,2.145,2.145,0,0,0-1.85-2.273c-.561-.084-1.126-.021-1.688-.051-.263-.014-.31.1-.305.329C-669.36,777.787-669.368,778.445-669.368,779.1Z" transform="translate(-607.652 -921.322)" fill="#fff"/>
    <path id="Path_3139" data-name="Path 3139" d="M-862.658,776.3c0-.524.005-1.048,0-1.572,0-.255.024-.453.353-.457s.374.168.372.437c-.008,1.061.006,2.123-.006,3.185a2.322,2.322,0,0,1-2.393,2.441,2.322,2.322,0,0,1-2.557-2.313c-.051-1.126-.011-2.257-.016-3.385,0-.256.118-.359.369-.363.282-.005.378.13.377.4,0,1.075-.02,2.15.005,3.224a1.711,1.711,0,0,0,2.292,1.687,1.65,1.65,0,0,0,1.2-1.626c0-.027,0-.054,0-.081q0-.786,0-1.572Z" transform="translate(-426.716 -919.592)" fill="#fff"/>
    <path id="Path_3140" data-name="Path 3140" d="M-580.676,777.141l1.665-2.7c.134-.217.248-.458.569-.43.119.01.255-.02.333.1.089.133-.038.225-.1.319-.611.978-1.217,1.96-1.845,2.927a1.509,1.509,0,0,0-.264.94c.023.469,0,.94.008,1.409,0,.252-.1.371-.354.373s-.415-.087-.394-.373c0-.053-.006-.108,0-.161a4.116,4.116,0,0,0-.955-3.274,17.22,17.22,0,0,1-1.128-1.76c-.078-.128-.316-.287-.1-.437a.547.547,0,0,1,.643.043,1.065,1.065,0,0,1,.211.29C-581.823,775.3-581.264,776.2-580.676,777.141Z" transform="translate(-687.429 -919.327)" fill="#fff"/>
    <path id="Path_3141" data-name="Path 3141" d="M-1002.577,777.363c0,.832,0,1.663,0,2.5,0,.451-.086.516-.6.518-.557,0-.649-.063-.65-.515q-.007-2.515,0-5.03c0-.453.091-.518.648-.516.521,0,.605.067.608.514C-1002.574,775.673-1002.577,776.518-1002.577,777.363Z" transform="translate(-300.842 -919.629)" fill="#fff"/>
    <g id="Group_2843" data-name="Group 2843" transform="translate(-1331.077 -226.011)">
      <path id="Path_3142" data-name="Path 3142" d="M-1331.07-155.428q0-35.106-.007-70.212c0-.3.068-.371.37-.371q37.464.012,74.927,0c.3,0,.371.068.371.371q-.012,35.106-.008,70.212c-.161,0-.322.01-.483.01h-74.687C-1330.747-155.418-1330.908-155.425-1331.07-155.428Zm60.519-44.436c0-3.508-.006-7.017.009-10.525,0-.381-.084-.494-.482-.493q-9.617.02-19.234,0c-.4,0-.479.122-.478.5q.018,9.456.008,18.912a1.88,1.88,0,0,1,0,.2c-.024.218.07.277.282.254.668-.07,1.338-.125,2.007-.184,2.289-.2,4.578-.4,6.866-.608.311-.029.422.046.43.373a12.549,12.549,0,0,1-.211,3.049,12.515,12.515,0,0,1-9.059,9.85c-.234.073-.32.157-.319.407q.014,3.629,0,7.258c0,.29.091.362.367.353a21.337,21.337,0,0,0,3.8-.435,20.146,20.146,0,0,0,16.016-19.838C-1270.545-193.816-1270.55-196.84-1270.55-199.865Zm-45.386-.041c0,3.037.006,6.074,0,9.111a20.179,20.179,0,0,0,1.348,7.368,20.213,20.213,0,0,0,18.3,12.9c.531.013.531.013.531-.538,0-2.217-.012-4.435.01-6.652,0-.4-.115-.532-.5-.61a12.657,12.657,0,0,1-10.125-10.911c-.039-.318.051-.405.361-.432,3.266-.275,6.53-.571,9.8-.843.348-.029.471-.111.47-.488q-.019-9.716,0-19.432c0-.351-.084-.451-.443-.45q-9.655.017-19.311,0c-.367,0-.44.111-.438.454C-1315.931-206.921-1315.936-203.413-1315.936-199.906Z" transform="translate(1331.077 226.011)" fill="#fff"/>
      <path id="Path_3143" data-name="Path 3143" d="M-768.218,88.887a2.524,2.524,0,0,1,2.51-2.519,2.521,2.521,0,0,1,2.519,2.549,2.517,2.517,0,0,1-2.529,2.5A2.521,2.521,0,0,1-768.218,88.887Z" transform="translate(813.624 -61.168)" fill="#fff"/>
      <path id="Path_3144" data-name="Path 3144" d="M-1018.015,88.881a2.531,2.531,0,0,1,2.518-2.515,2.533,2.533,0,0,1,2.52,2.514,2.529,2.529,0,0,1-2.54,2.533A2.527,2.527,0,0,1-1018.015,88.881Z" transform="translate(1043.27 -61.167)" fill="#fff"/>
    </g>
  </g>
</svg>
