<svg xmlns="http://www.w3.org/2000/svg" xmlns:xlink="http://www.w3.org/1999/xlink" width="187.111" height="187.111" viewBox="0 0 187.111 187.111">
  <defs>
    <clipPath id="clip-path">
      <rect id="Rectangle_52" data-name="Rectangle 52" width="186.111" height="186.11" fill="#fff" stroke="rgba(0,0,0,0)" stroke-width="1"/>
    </clipPath>
  </defs>
  <g id="Group_2958" data-name="Group 2958" transform="translate(0.5 0.498)">
    <path id="Path_154" data-name="Path 154" d="M352.091,1018.249H507.768v155.677H352.091ZM336.872,1189.14H522.983V1003.03H336.872Z" transform="translate(-336.872 -1003.028)" fill="#fff" stroke="rgba(0,0,0,0)" stroke-width="1"/>
    <path id="Path_155" data-name="Path 155" d="M365.809,1050.17l-4.618-13.45h-.105l-4.771,13.45Zm-.464-22.48,13.7,36.645h-8.365l-2.771-8.159h-13.7l-2.876,8.159h-8.111l13.862-36.645Z" transform="translate(-315.421 -919.751)" fill="#fff" stroke="rgba(0,0,0,0)" stroke-width="1"/>
    <path id="Path_156" data-name="Path 156" d="M359.161,1064.335h-7.288V1037.8h7.288Zm-7.292-36.644h7.288v6.005h-7.288Z" transform="translate(-286.227 -919.748)" fill="#fff" stroke="rgba(0,0,0,0)" stroke-width="1"/>
    <g id="Group_71" data-name="Group 71" transform="translate(0 0)">
      <g id="Group_70" data-name="Group 70" clip-path="url(#clip-path)">
        <path id="Path_157" data-name="Path 157" d="M361.067,1030.554v4.928h.105a8.783,8.783,0,0,1,1.388-2.285,8.975,8.975,0,0,1,2-1.795,9.628,9.628,0,0,1,2.412-1.156,8.611,8.611,0,0,1,2.67-.411,5.553,5.553,0,0,1,1.589.258v6.771c-.341-.065-.753-.126-1.23-.179a12.782,12.782,0,0,0-1.383-.074,7.78,7.78,0,0,0-3.388.665,5.881,5.881,0,0,0-2.237,1.822,7.351,7.351,0,0,0-1.208,2.7,14.875,14.875,0,0,0-.359,3.34v11.953h-7.283v-26.533Z" transform="translate(-278.548 -912.503)" fill="#fff" stroke="rgba(0,0,0,0)" stroke-width="1"/>
        <path id="Path_158" data-name="Path 158" d="M359.693,1038.642a5.277,5.277,0,0,1,1.015-2.275,4.774,4.774,0,0,1,2.1-1.45,10.2,10.2,0,0,1,3.528-.508,10.864,10.864,0,0,1,3.414.446,5.131,5.131,0,0,1,2.079,1.244,4.2,4.2,0,0,1,1.046,1.843,8.376,8.376,0,0,1,.284,2.241,8.271,8.271,0,0,1-.713,3.62,10.013,10.013,0,0,1-1.917,2.665l-3.291,3.2c-.241.242-.508.512-.8.811a2.3,2.3,0,0,0-.578.927h7.3v4.189H359.211a13.175,13.175,0,0,1,.674-4.233,10.541,10.541,0,0,1,2.5-3.878l3.712-3.769a5.762,5.762,0,0,0,1.155-1.541,4.687,4.687,0,0,0,.341-1.93,3.217,3.217,0,0,0-.389-1.856,1.255,1.255,0,0,0-1.051-.508,1.551,1.551,0,0,0-.565.1,1.134,1.134,0,0,0-.495.4,2.322,2.322,0,0,0-.359.854,6.209,6.209,0,0,0-.136,1.453v.9H359.39a16.6,16.6,0,0,1,.3-2.95" transform="translate(-261.433 -897.057)" fill="#fff" stroke="rgba(0,0,0,0)" stroke-width="1"/>
        <path id="Path_159" data-name="Path 159" d="M370.646,1051.334a12.166,12.166,0,0,0,1.716,3.926,8.837,8.837,0,0,0,3.077,2.793,10.665,10.665,0,0,0,9.231,0,8.835,8.835,0,0,0,3.077-2.793,12.169,12.169,0,0,0,1.716-3.926,18.585,18.585,0,0,0,.543-4.482,20.075,20.075,0,0,0-.543-4.67,12.411,12.411,0,0,0-1.716-4.023,8.7,8.7,0,0,0-3.077-2.818,10.618,10.618,0,0,0-9.231,0,8.7,8.7,0,0,0-3.077,2.818,12.408,12.408,0,0,0-1.716,4.023,20.073,20.073,0,0,0-.539,4.67,18.583,18.583,0,0,0,.539,4.482m-7.358-12.1a18.279,18.279,0,0,1,3.537-6.129,16.185,16.185,0,0,1,5.668-4.1,20.023,20.023,0,0,1,15.149,0,16.2,16.2,0,0,1,5.642,4.1,18.2,18.2,0,0,1,3.537,6.129,22.817,22.817,0,0,1,1.234,7.615,22.036,22.036,0,0,1-1.234,7.458,17.776,17.776,0,0,1-3.537,6.027,16.221,16.221,0,0,1-5.642,4.023,20.353,20.353,0,0,1-15.149,0,16.207,16.207,0,0,1-5.668-4.023,17.853,17.853,0,0,1-3.537-6.027,22.147,22.147,0,0,1-1.23-7.458,22.931,22.931,0,0,1,1.23-7.615" transform="translate(-251.819 -920.328)" fill="#fff" stroke="rgba(0,0,0,0)" stroke-width="1"/>
      </g>
    </g>
  </g>
</svg>
