<svg id="Group_1464" data-name="Group 1464" xmlns="http://www.w3.org/2000/svg" width="73.225" height="51.254" viewBox="0 0 73.225 51.254">
  <rect id="Rectangle_82" data-name="Rectangle 82" width="58.633" height="15.636" transform="translate(9.757 16.247)" fill="#fff"/>
  <g id="Group_108" data-name="Group 108" transform="translate(0 0)">
    <g id="Group_107" data-name="Group 107" transform="translate(0 0)">
      <path id="Path_224" data-name="Path 224" d="M-208.285,131.513a1.354,1.354,0,0,0-1.213.616,2.461,2.461,0,0,0-.342,1h3.027a2.112,2.112,0,0,0-.28-1A1.321,1.321,0,0,0-208.285,131.513Z" transform="translate(237.199 -109.768)" fill="#109bd8"/>
      <path id="Path_225" data-name="Path 225" d="M-224.613,135.731a.928.928,0,0,0-.378.821,1.017,1.017,0,0,0,.128.553.8.8,0,0,0,.244.251,1.9,1.9,0,0,0,1.244.247,8.786,8.786,0,0,0,1.145-.151v-1.93a8.477,8.477,0,0,0-1.152-.1A1.9,1.9,0,0,0-224.613,135.731Z" transform="translate(242.804 -111.214)" fill="#109bd8"/>
      <path id="Path_226" data-name="Path 226" d="M-181.229,131.555a1.34,1.34,0,0,0-1.215.589,3.093,3.093,0,0,0-.4,1.7,3.114,3.114,0,0,0,.4,1.7,1.333,1.333,0,0,0,1.214.6,1.35,1.35,0,0,0,1.221-.6,3.08,3.08,0,0,0,.4-1.7,3.048,3.048,0,0,0-.4-1.7A1.353,1.353,0,0,0-181.229,131.555Z" transform="translate(227.212 -109.783)" fill="#109bd8"/>
      <path id="Path_227" data-name="Path 227" d="M-195.823,103.943a15.6,15.6,0,0,0-6.385,1.357,12.966,12.966,0,0,0-11.3-6.7,12.838,12.838,0,0,0-9.287,3.986A14.2,14.2,0,0,0-234.1,97a14.212,14.212,0,0,0-14.222,14.2,14.124,14.124,0,0,0,1.17,5.649,12.367,12.367,0,0,0-6.111,10.7A12.285,12.285,0,0,0-241.041,139.9a12.215,12.215,0,0,0,2.512-.261,13.171,13.171,0,0,0,12.355,8.618,13.169,13.169,0,0,0,12.119-8.023,11.49,11.49,0,0,0,5.049,1.163,11.534,11.534,0,0,0,10.071-5.912,15.738,15.738,0,0,0,3.111.31,15.857,15.857,0,0,0,15.786-15.925A15.856,15.856,0,0,0-195.823,103.943Zm-41.758,18.482c0,1.285-.934,2.084-2.437,2.084a4.468,4.468,0,0,1-2.19-.51,4.488,4.488,0,0,1-.417-.255c-.015-.02-.078-.044-.031-.165l.3-.822a.121.121,0,0,1,.2-.069c.082.051.143.094.248.158a3.547,3.547,0,0,0,1.934.556c.653,0,1.059-.347,1.059-.812v-.026c0-.507-.623-.7-1.345-.921l-.16-.05c-.993-.282-2.052-.691-2.052-1.944v-.025a2.1,2.1,0,0,1,2.336-2.021h.149a4.266,4.266,0,0,1,2.153.578.138.138,0,0,1,.072.169c-.026.074-.276.745-.3.823-.053.139-.2.046-.2.046a4.324,4.324,0,0,0-1.907-.488c-.582,0-.959.309-.959.729v.025c0,.491.645.7,1.388.942l.129.04c.987.312,2.042.745,2.042,1.935Zm6.146,1.671s-.155.043-.295.075-.652.137-1.07.209a7.861,7.861,0,0,1-1.288.107,5.008,5.008,0,0,1-1.125-.116,2.32,2.32,0,0,1-.864-.374,1.748,1.748,0,0,1-.554-.665,2.194,2.194,0,0,1-.194-.969,2.058,2.058,0,0,1,.225-.977,2.089,2.089,0,0,1,.617-.7,2.757,2.757,0,0,1,.886-.41,4.059,4.059,0,0,1,1.047-.134c.266,0,.488.006.661.02,0,0,.336.03.7.083v-.179c0-.566-.118-.834-.349-1.013a1.725,1.725,0,0,0-1.05-.274,4.336,4.336,0,0,0-1.85.43.724.724,0,0,1-.067.037.11.11,0,0,1-.14-.069l-.3-.808a.132.132,0,0,1,.038-.168,4.074,4.074,0,0,1,1.307-.479,6.992,6.992,0,0,1,1.139-.1,2.89,2.89,0,0,1,1.95.587,2.383,2.383,0,0,1,.674,1.876l0,3.879A.135.135,0,0,1-231.435,124.1Zm2.852.122a.123.123,0,0,1-.122.129h-1.126a.123.123,0,0,1-.122-.129V115.16a.123.123,0,0,1,.122-.128h1.126a.122.122,0,0,1,.122.128Zm7.028-2.914a.124.124,0,0,1-.124.11l-4.243,0a2,2,0,0,0,.5,1.411,2,2,0,0,0,1.45.5,4.055,4.055,0,0,0,1.743-.313.124.124,0,0,1,.16.075l.278.776c.055.131.011.176-.035.2a4.421,4.421,0,0,1-2.138.425,4.282,4.282,0,0,1-1.542-.249,2.8,2.8,0,0,1-1.067-.707,2.812,2.812,0,0,1-.615-1.079,4.548,4.548,0,0,1-.193-1.355,4.8,4.8,0,0,1,.187-1.353,3.074,3.074,0,0,1,.575-1.1,2.77,2.77,0,0,1,.977-.746,3.307,3.307,0,0,1,1.4-.272,3.1,3.1,0,0,1,1.215.246,2.462,2.462,0,0,1,.807.615,2.65,2.65,0,0,1,.543.993A4.563,4.563,0,0,1-221.555,121.3Zm1.336,2.695a4.475,4.475,0,0,1-.417-.255c-.016-.02-.079-.044-.031-.165l.3-.822a.127.127,0,0,1,.2-.069c.079.053.142.094.248.158a3.548,3.548,0,0,0,1.934.556c.653,0,1.06-.347,1.06-.812v-.026c0-.507-.622-.7-1.348-.921l-.159-.05c-.99-.282-2.052-.691-2.052-1.944v-.025a2.1,2.1,0,0,1,2.337-2.021h.149a4.258,4.258,0,0,1,2.152.578.143.143,0,0,1,.074.169c-.027.074-.277.745-.306.823-.053.139-.2.046-.2.046a4.334,4.334,0,0,0-1.908-.488c-.582,0-.958.309-.958.729v.025c0,.491.642.7,1.388.942l.129.04c.987.312,2.041.745,2.041,1.935v.025c0,1.285-.934,2.084-2.436,2.084A4.469,4.469,0,0,1-220.219,124Zm9.6-5.228a.142.142,0,0,1-.141.124h-1.4l-.955,5.41a8.19,8.19,0,0,1-.374,1.425,2.838,2.838,0,0,1-.551.95,1.962,1.962,0,0,1-.785.547,3.075,3.075,0,0,1-1.041.162,2.508,2.508,0,0,1-.621-.06,3.136,3.136,0,0,1-.389-.113.125.125,0,0,1-.064-.168c.03-.085.28-.772.314-.863a.117.117,0,0,1,.154-.068.946.946,0,0,0,.231.072,1.809,1.809,0,0,0,.34.039,1.614,1.614,0,0,0,.5-.072.8.8,0,0,0,.389-.3,2.135,2.135,0,0,0,.3-.6,6.435,6.435,0,0,0,.253-1.045l.953-5.313h-.938c-.113,0-.15-.052-.137-.137l.159-.882a.141.141,0,0,1,.141-.124h.963l.051-.287a3.523,3.523,0,0,1,.854-1.925,2.432,2.432,0,0,1,1.8-.646,3.378,3.378,0,0,1,.577.045,3.551,3.551,0,0,1,.42.1.115.115,0,0,1,.077.149l-.324.891c-.03.067-.047.108-.185.064-.036-.009-.086-.024-.218-.052a1.8,1.8,0,0,0-.348-.035,1.486,1.486,0,0,0-.456.065.877.877,0,0,0-.355.221,1.224,1.224,0,0,0-.3.454,5.469,5.469,0,0,0-.223.956h1.355c.113,0,.149.053.139.136Zm6.214,3.636a3.027,3.027,0,0,1-.57,1.089,2.7,2.7,0,0,1-.965.726,3.221,3.221,0,0,1-1.343.262,3.222,3.222,0,0,1-1.343-.262,2.682,2.682,0,0,1-.964-.726,3.01,3.01,0,0,1-.57-1.089,4.693,4.693,0,0,1-.186-1.347,4.7,4.7,0,0,1,.186-1.348,3.005,3.005,0,0,1,.57-1.089,2.745,2.745,0,0,1,.963-.733,3.182,3.182,0,0,1,1.345-.269,3.172,3.172,0,0,1,1.343.269,2.753,2.753,0,0,1,.965.733,3.035,3.035,0,0,1,.57,1.089,4.745,4.745,0,0,1,.185,1.348A4.743,4.743,0,0,1-204.4,122.407Zm5.246-4.434c-.038.115-.246.7-.319.891-.028.073-.074.125-.156.115a2.316,2.316,0,0,0-.466-.059,2.046,2.046,0,0,0-.568.081,1.293,1.293,0,0,0-.526.316,1.577,1.577,0,0,0-.371.624,3.7,3.7,0,0,0-.141,1.114v3.162a.128.128,0,0,1-.128.128h-1.115a.126.126,0,0,1-.129-.128v-6.332a.122.122,0,0,1,.121-.128h1.087a.123.123,0,0,1,.123.128v.519a1.9,1.9,0,0,1,.716-.531,2.112,2.112,0,0,1,1.1-.176,3.838,3.838,0,0,1,.711.122A.116.116,0,0,1-199.156,117.974Zm5.306,6.19a5.081,5.081,0,0,1-1.775.318,3.168,3.168,0,0,1-2.476-.931,3.6,3.6,0,0,1-.835-2.5,4.309,4.309,0,0,1,.2-1.351,3.093,3.093,0,0,1,.611-1.089,2.891,2.891,0,0,1,1.009-.73,3.408,3.408,0,0,1,1.4-.269,6.462,6.462,0,0,1,.94.062,5.017,5.017,0,0,1,.837.212.113.113,0,0,1,.078.148c-.117.334-.2.551-.309.856-.045.13-.144.087-.144.087a4.209,4.209,0,0,0-1.325-.189,1.638,1.638,0,0,0-1.392.612,2.664,2.664,0,0,0-.481,1.65,2.4,2.4,0,0,0,.539,1.715,1.916,1.916,0,0,0,1.435.536,4.3,4.3,0,0,0,.686-.049,2.845,2.845,0,0,0,.585-.166.117.117,0,0,1,.159.074l.307.851A.112.112,0,0,1-193.849,124.164Zm6.286-2.86a.125.125,0,0,1-.124.11l-4.244,0a2,2,0,0,0,.495,1.411,2,2,0,0,0,1.451.5,4.049,4.049,0,0,0,1.742-.313.122.122,0,0,1,.159.075l.28.776c.055.131.011.176-.036.2a4.409,4.409,0,0,1-2.138.425,4.292,4.292,0,0,1-1.542-.249,2.806,2.806,0,0,1-1.067-.707,2.837,2.837,0,0,1-.616-1.079,4.546,4.546,0,0,1-.192-1.355,4.706,4.706,0,0,1,.187-1.353,3.073,3.073,0,0,1,.574-1.1,2.79,2.79,0,0,1,.977-.746,3.315,3.315,0,0,1,1.4-.272,3.1,3.1,0,0,1,1.216.246,2.49,2.49,0,0,1,.807.615,2.649,2.649,0,0,1,.541.993A4.577,4.577,0,0,1-187.564,121.3Z" transform="translate(253.262 -97.001)" fill="#109bd8"/>
      <path id="Path_228" data-name="Path 228" d="M-154.336,131.513a1.348,1.348,0,0,0-1.214.616,2.489,2.489,0,0,0-.343,1h3.028a2.078,2.078,0,0,0-.282-1A1.314,1.314,0,0,0-154.336,131.513Z" transform="translate(217.242 -109.768)" fill="#109bd8"/>
    </g>
  </g>
</svg>
