<svg xmlns="http://www.w3.org/2000/svg" xmlns:xlink="http://www.w3.org/1999/xlink" width="63.843" height="63.843" viewBox="0 0 63.843 63.843">
  <defs>
    <clipPath id="clip-path">
      <rect id="Rectangle_52" data-name="Rectangle 52" width="62.843" height="62.842" fill="#fff" stroke="rgba(0,0,0,0)" stroke-width="1"/>
    </clipPath>
  </defs>
  <g id="Group_72" data-name="Group 72" transform="translate(0.5 0.499)">
    <path id="Path_154" data-name="Path 154" d="M342.011,1008.169h52.566v52.566H342.011Zm-5.139,57.7h62.843V1003.03H336.872Z" transform="translate(-336.872 -1003.029)" fill="#fff" stroke="rgba(0,0,0,0)" stroke-width="1"/>
    <path id="Path_155" data-name="Path 155" d="M350.85,1035.281l-1.559-4.542h-.036l-1.611,4.542Zm-.157-7.591,4.627,12.373H352.5l-.936-2.755h-4.627l-.971,2.755h-2.739l4.681-12.373Z" transform="translate(-333.836 -991.243)" fill="#fff" stroke="rgba(0,0,0,0)" stroke-width="1"/>
    <path id="Path_156" data-name="Path 156" d="M354.331,1040.064H351.87V1031.1h2.461Zm-2.462-12.373h2.461v2.028h-2.461Z" transform="translate(-329.704 -991.243)" fill="#fff" stroke="rgba(0,0,0,0)" stroke-width="1"/>
    <g id="Group_71" data-name="Group 71" transform="translate(0 0)">
      <g id="Group_70" data-name="Group 70" clip-path="url(#clip-path)">
        <path id="Path_157" data-name="Path 157" d="M356.481,1030.078v1.664h.035a2.966,2.966,0,0,1,.469-.771,3.031,3.031,0,0,1,.675-.606,3.25,3.25,0,0,1,.814-.39,2.907,2.907,0,0,1,.9-.139,1.874,1.874,0,0,1,.536.087v2.286c-.115-.022-.254-.043-.415-.061a4.311,4.311,0,0,0-.467-.025,2.628,2.628,0,0,0-1.144.225,1.987,1.987,0,0,0-.755.615,2.482,2.482,0,0,0-.408.91A5.022,5.022,0,0,0,356.6,1035v4.036h-2.459v-8.959Z" transform="translate(-328.617 -990.217)" fill="#fff" stroke="rgba(0,0,0,0)" stroke-width="1"/>
        <path id="Path_158" data-name="Path 158" d="M359.374,1035.839a1.782,1.782,0,0,1,.343-.768,1.613,1.613,0,0,1,.708-.49,3.447,3.447,0,0,1,1.191-.171,3.668,3.668,0,0,1,1.153.151,1.733,1.733,0,0,1,.7.42,1.417,1.417,0,0,1,.353.622,2.827,2.827,0,0,1,.1.757,2.793,2.793,0,0,1-.241,1.222,3.384,3.384,0,0,1-.647.9l-1.111,1.08c-.081.082-.171.173-.269.274a.777.777,0,0,0-.2.313h2.464v1.415h-4.709a4.449,4.449,0,0,1,.228-1.429,3.559,3.559,0,0,1,.844-1.31l1.253-1.272a1.947,1.947,0,0,0,.39-.52,1.583,1.583,0,0,0,.115-.652,1.086,1.086,0,0,0-.132-.627.424.424,0,0,0-.355-.171.524.524,0,0,0-.191.035.383.383,0,0,0-.167.136.785.785,0,0,0-.121.288,2.1,2.1,0,0,0-.046.49v.3h-1.759a5.606,5.606,0,0,1,.1-1" transform="translate(-326.195 -988.031)" fill="#fff" stroke="rgba(0,0,0,0)" stroke-width="1"/>
        <path id="Path_159" data-name="Path 159" d="M364.958,1035.561a4.109,4.109,0,0,0,.579,1.326,2.984,2.984,0,0,0,1.039.943,3.6,3.6,0,0,0,3.117,0,2.983,2.983,0,0,0,1.039-.943,4.109,4.109,0,0,0,.579-1.326,6.276,6.276,0,0,0,.183-1.513,6.778,6.778,0,0,0-.183-1.577,4.19,4.19,0,0,0-.579-1.358,2.936,2.936,0,0,0-1.039-.952,3.585,3.585,0,0,0-3.117,0,2.936,2.936,0,0,0-1.039.952,4.19,4.19,0,0,0-.579,1.358,6.778,6.778,0,0,0-.182,1.577,6.275,6.275,0,0,0,.182,1.513m-2.484-4.085a6.172,6.172,0,0,1,1.194-2.069,5.463,5.463,0,0,1,1.914-1.385,6.761,6.761,0,0,1,5.115,0,5.469,5.469,0,0,1,1.905,1.385,6.145,6.145,0,0,1,1.194,2.069,7.705,7.705,0,0,1,.417,2.572,7.441,7.441,0,0,1-.417,2.518,6,6,0,0,1-1.194,2.035,5.479,5.479,0,0,1-1.905,1.358,6.872,6.872,0,0,1-5.115,0,5.473,5.473,0,0,1-1.914-1.358,6.028,6.028,0,0,1-1.194-2.035,7.478,7.478,0,0,1-.415-2.518,7.744,7.744,0,0,1,.415-2.572" transform="translate(-324.834 -991.325)" fill="#fff" stroke="rgba(0,0,0,0)" stroke-width="1"/>
      </g>
    </g>
  </g>
</svg>
