<svg xmlns="http://www.w3.org/2000/svg" xmlns:xlink="http://www.w3.org/1999/xlink" width="85.014" height="48.379" viewBox="0 0 85.014 48.379">
  <defs>
    <clipPath id="clip-path">
      <rect id="Rectangle_41" data-name="Rectangle 41" width="84.467" height="47.385" fill="#fff" stroke="rgba(0,0,0,0)" stroke-width="1"/>
    </clipPath>
  </defs>
  <g id="Group_69" data-name="Group 69" transform="translate(0 0.599)">
    <g id="Group_56" data-name="Group 56" transform="translate(0 0.002)">
      <g id="Group_55" data-name="Group 55" clip-path="url(#clip-path)">
        <path id="Path_132" data-name="Path 132" d="M453.411,924a8.264,8.264,0,0,0-2.83-.446c-2.323,0-6.108,1.37-6.108,6.555,0,5.572,3.606,6.822,6.138,6.822a9.74,9.74,0,0,0,3.815-.774l.268.149-.8,4.023a15.6,15.6,0,0,1-4.29.566c-5.393,0-10.041-2.861-10.041-10.072,0-7.716,5.244-11.232,10.964-11.232a12.974,12.974,0,0,1,3.755.507Z" transform="translate(-439.557 -919.527)" fill="#fff" stroke="rgba(0,0,0,0)" stroke-width="1"/>
        <path id="Path_133" data-name="Path 133" d="M460.043,923.46c-2.354,0-4.2,2.176-4.2,5.395,0,4.707,1.938,8.133,5.006,8.133,2.146,0,4.351-1.519,4.351-5.454,0-4.676-1.877-8.074-5.155-8.074m-.03,17.431c-5.035,0-9.088-3.4-9.088-10.578s4.709-10.727,9.744-10.727c5,0,9.444,3.367,9.444,10.25,0,7.539-4.29,11.055-10.1,11.055" transform="translate(-434.123 -919.527)" fill="#fff" stroke="rgba(0,0,0,0)" stroke-width="1"/>
        <path id="Path_134" data-name="Path 134" d="M476.507,924.324a10,10,0,0,0-3.724-.894,1.952,1.952,0,0,0-2.174,2c0,1.37.983,2.026,3.306,2.95,2.474.983,4.679,2.025,4.679,5.482,0,4.678-3.13,7.032-7.867,7.032a10.365,10.365,0,0,1-5.69-1.521l1.667-4.021a9.326,9.326,0,0,0,4.62,1.609,2.135,2.135,0,0,0,2.412-2.176c0-1.49-1.072-2.146-3.544-3.129-2.5-1.012-4.44-2.264-4.44-5.244,0-4.707,3.308-6.824,7.241-6.824a14.231,14.231,0,0,1,4.647.805Z" transform="translate(-427.378 -919.527)" fill="#fff" stroke="rgba(0,0,0,0)" stroke-width="1"/>
      </g>
    </g>
    <path id="Path_135" data-name="Path 135" d="M483.652,926.519l2.205,6.136-4.35.417Zm2.266-6.974-3.9,1.014-7.24,19.9h4.35l1.281-3.872,6.645-.536,1.608,4.409h4.709Z" transform="translate(-422.725 -919.545)" fill="#fff" stroke="rgba(0,0,0,0)" stroke-width="1"/>
    <path id="Path_136" data-name="Path 136" d="M488.9,919.888V940.3h4.74v-8.045h6.107l.359-3.577h-6.466v-5.214h6.466l.327-3.575Z" transform="translate(-415.971 -919.381)" fill="#fff" stroke="rgba(0,0,0,0)" stroke-width="1"/>
    <path id="Path_137" data-name="Path 137" d="M439.99,946.231v7.839h4.435v-1.089h-3.154V950.52h2.954v-1.073h-2.954v-2.133h3.154v-1.083Z" transform="translate(-439.35 -906.79)" fill="#fff" stroke="rgba(0,0,0,0)" stroke-width="1"/>
    <g id="Group_58" data-name="Group 58" transform="translate(0 0.002)">
      <g id="Group_57" data-name="Group 57" clip-path="url(#clip-path)">
        <path id="Path_138" data-name="Path 138" d="M451.031,954.07H449.46l-3.855-6.246h-.043l.028.349c.049.665.074,1.271.074,1.822v4.075H444.5v-7.839h1.555l3.844,6.215h.032c-.007-.083-.022-.383-.043-.9s-.032-.919-.032-1.209v-4.107h1.173Z" transform="translate(-437.194 -906.792)" fill="#fff" stroke="rgba(0,0,0,0)" stroke-width="1"/>
        <path id="Path_139" data-name="Path 139" d="M454.015,949.856H456.9v3.934a8.4,8.4,0,0,1-1.36.327,9.507,9.507,0,0,1-1.407.1,3.534,3.534,0,0,1-2.746-1.054,4.238,4.238,0,0,1-.964-2.972,3.965,3.965,0,0,1,1.088-2.962,4.094,4.094,0,0,1,3-1.07,5.856,5.856,0,0,1,2.326.473l-.449,1.066a4.543,4.543,0,0,0-1.91-.439,2.572,2.572,0,0,0-1.983.788,3.053,3.053,0,0,0-.73,2.156,3.219,3.219,0,0,0,.658,2.185,2.376,2.376,0,0,0,1.889.748,6.131,6.131,0,0,0,1.33-.157v-2.022h-1.624Z" transform="translate(-434.363 -906.828)" fill="#fff" stroke="rgba(0,0,0,0)" stroke-width="1"/>
      </g>
    </g>
    <rect id="Rectangle_43" data-name="Rectangle 43" width="1.281" height="7.839" transform="translate(24.958 39.441)" fill="#fff" stroke="rgba(0,0,0,0)" stroke-width="1"/>
    <g id="Group_60" data-name="Group 60" transform="translate(0 0.002)">
      <g id="Group_59" data-name="Group 59" clip-path="url(#clip-path)">
        <path id="Path_140" data-name="Path 140" d="M465.606,954.07h-1.571l-3.855-6.246h-.043l.027.349c.05.665.075,1.271.075,1.822v4.075h-1.163v-7.839h1.553l3.844,6.215h.033c-.006-.083-.021-.383-.041-.9s-.032-.919-.032-1.209v-4.107h1.173Z" transform="translate(-430.228 -906.792)" fill="#fff" stroke="rgba(0,0,0,0)" stroke-width="1"/>
      </g>
    </g>
    <path id="Path_141" data-name="Path 141" d="M465.259,946.231v7.839h4.434v-1.089H466.54V950.52h2.954v-1.073H466.54v-2.133h3.152v-1.083Z" transform="translate(-427.272 -906.79)" fill="#fff" stroke="rgba(0,0,0,0)" stroke-width="1"/>
    <path id="Path_142" data-name="Path 142" d="M469.769,946.231v7.839H474.2v-1.089h-3.152V950.52h2.954v-1.073h-2.954v-2.133H474.2v-1.083Z" transform="translate(-425.117 -906.79)" fill="#fff" stroke="rgba(0,0,0,0)" stroke-width="1"/>
    <g id="Group_62" data-name="Group 62" transform="translate(0 0.002)">
      <g id="Group_61" data-name="Group 61" clip-path="url(#clip-path)">
        <path id="Path_143" data-name="Path 143" d="M475.564,949.877h.89a2.027,2.027,0,0,0,1.3-.331,1.208,1.208,0,0,0,.4-.987,1.061,1.061,0,0,0-.435-.955,2.39,2.39,0,0,0-1.308-.29h-.847Zm0,1.063v3.129h-1.283v-7.836H476.5a3.636,3.636,0,0,1,2.246.569,2.042,2.042,0,0,1,.729,1.714,2.144,2.144,0,0,1-1.522,2.085l2.214,3.467H478.7l-1.876-3.129Z" transform="translate(-422.96 -906.792)" fill="#fff" stroke="rgba(0,0,0,0)" stroke-width="1"/>
      </g>
    </g>
    <rect id="Rectangle_46" data-name="Rectangle 46" width="1.283" height="7.839" transform="translate(58.879 39.441)" fill="#fff" stroke="rgba(0,0,0,0)" stroke-width="1"/>
    <g id="Group_64" data-name="Group 64" transform="translate(0 0.002)">
      <g id="Group_63" data-name="Group 63" clip-path="url(#clip-path)">
        <path id="Path_144" data-name="Path 144" d="M488.557,954.07h-1.571l-3.854-6.246h-.043l.027.349c.05.665.075,1.271.075,1.822v4.075h-1.163v-7.839h1.553l3.844,6.215h.033c-.007-.083-.021-.383-.044-.9s-.03-.919-.03-1.209v-4.107h1.174Z" transform="translate(-419.258 -906.792)" fill="#fff" stroke="rgba(0,0,0,0)" stroke-width="1"/>
        <path id="Path_145" data-name="Path 145" d="M491.435,949.856h2.885v3.934a8.4,8.4,0,0,1-1.36.327,9.507,9.507,0,0,1-1.407.1,3.534,3.534,0,0,1-2.746-1.054,4.238,4.238,0,0,1-.964-2.972,3.97,3.97,0,0,1,1.086-2.962,4.1,4.1,0,0,1,3-1.07,5.862,5.862,0,0,1,2.328.473l-.451,1.066a4.532,4.532,0,0,0-1.908-.439,2.57,2.57,0,0,0-1.983.788,3.053,3.053,0,0,0-.729,2.156,3.211,3.211,0,0,0,.656,2.185,2.376,2.376,0,0,0,1.889.748,6.131,6.131,0,0,0,1.33-.157v-2.02h-1.624Z" transform="translate(-416.478 -906.828)" fill="#fff" stroke="rgba(0,0,0,0)" stroke-width="1"/>
      </g>
    </g>
    <rect id="Rectangle_48" data-name="Rectangle 48" width="1.281" height="7.838" transform="translate(0.64 27.625)" fill="#fff" stroke="rgba(0,0,0,0)" stroke-width="1"/>
    <g id="Group_66" data-name="Group 66" transform="translate(0 0.002)">
      <g id="Group_65" data-name="Group 65" clip-path="url(#clip-path)">
        <path id="Path_146" data-name="Path 146" d="M449.152,946.073h-1.57l-3.856-6.246h-.043l.028.349q.073,1,.074,1.824v4.073h-1.163v-7.838h1.555l3.844,6.215h.031c-.006-.083-.021-.383-.041-.9s-.033-.919-.033-1.208v-4.107h1.174Z" transform="translate(-438.092 -910.614)" fill="#fff" stroke="rgba(0,0,0,0)" stroke-width="1"/>
        <path id="Path_147" data-name="Path 147" d="M455.335,946.073h-1.571l-3.854-6.246h-.043l.028.349q.073,1,.074,1.824v4.073H448.8v-7.838h1.555l3.843,6.215h.033c-.007-.083-.021-.383-.043-.9s-.031-.919-.031-1.208v-4.107h1.173Z" transform="translate(-435.137 -910.614)" fill="#fff" stroke="rgba(0,0,0,0)" stroke-width="1"/>
        <path id="Path_148" data-name="Path 148" d="M456.089,942.183a3.528,3.528,0,0,0,.584,2.2,2.383,2.383,0,0,0,3.457.007,4.452,4.452,0,0,0,0-4.389,2.032,2.032,0,0,0-1.717-.745,2.08,2.08,0,0,0-1.741.745,3.482,3.482,0,0,0-.587,2.186m5.983,0a4.286,4.286,0,0,1-.956,2.975,4.022,4.022,0,0,1-5.436.01,4.314,4.314,0,0,1-.952-3,4.246,4.246,0,0,1,.958-2.981,3.523,3.523,0,0,1,2.731-1.039,3.45,3.45,0,0,1,2.7,1.055,4.284,4.284,0,0,1,.953,2.975" transform="translate(-432.306 -910.653)" fill="#fff" stroke="rgba(0,0,0,0)" stroke-width="1"/>
        <path id="Path_149" data-name="Path 149" d="M466,938.235h1.33l-2.746,7.839h-1.351l-2.734-7.839h1.32l1.635,4.871q.129.35.273.9c.1.366.16.638.188.817.046-.272.118-.585.214-.943s.176-.624.236-.8Z" transform="translate(-429.546 -910.614)" fill="#fff" stroke="rgba(0,0,0,0)" stroke-width="1"/>
        <path id="Path_150" data-name="Path 150" d="M470.264,942.8l-.735-2.134c-.055-.142-.129-.368-.222-.675s-.161-.532-.2-.674a11.975,11.975,0,0,1-.424,1.441l-.708,2.042Zm1.12,3.281-.783-2.177h-3l-.766,2.177h-1.351l2.932-7.872h1.394l2.934,7.872Z" transform="translate(-427.163 -910.624)" fill="#fff" stroke="rgba(0,0,0,0)" stroke-width="1"/>
      </g>
    </g>
    <path id="Path_151" data-name="Path 151" d="M474.456,946.073h-1.281v-6.738h-2.306v-1.1h5.893v1.1h-2.306Z" transform="translate(-424.591 -910.612)" fill="#fff" stroke="rgba(0,0,0,0)" stroke-width="1"/>
    <rect id="Rectangle_50" data-name="Rectangle 50" width="1.281" height="7.838" transform="translate(53.911 27.625)" fill="#fff" stroke="rgba(0,0,0,0)" stroke-width="1"/>
    <g id="Group_68" data-name="Group 68" transform="translate(0 0.002)">
      <g id="Group_67" data-name="Group 67" clip-path="url(#clip-path)">
        <path id="Path_152" data-name="Path 152" d="M483.466,938.235h1.33l-2.746,7.839H480.7l-2.734-7.839h1.32l1.635,4.871c.086.234.176.534.273.9s.158.638.188.817c.046-.272.117-.585.214-.943s.176-.624.236-.8Z" transform="translate(-421.199 -910.614)" fill="#fff" stroke="rgba(0,0,0,0)" stroke-width="1"/>
      </g>
    </g>
    <path id="Path_153" data-name="Path 153" d="M488.085,946.074h-4.434v-7.839h4.434v1.083h-3.151v2.134h2.953v1.072h-2.953v2.462h3.151Z" transform="translate(-418.482 -910.612)" fill="#fff" stroke="rgba(0,0,0,0)" stroke-width="1"/>
  </g>
</svg>
